<svg width="41" height="41" viewBox="0 0 41 41" fill="none" xmlns="http://www.w3.org/2000/svg">
<path d="M19.0793 1.41421C19.8604 0.633164 21.1267 0.633165 21.9077 1.41421L22.7041 2.21058C23.4852 2.99163 23.4852 4.25796 22.7041 5.03901L9.81128 17.9318H38.9871C40.0916 17.9318 40.9871 18.8273 40.9871 19.9318V21.0552C40.9871 22.1598 40.0916 23.0552 38.9871 23.0552H9.81128L22.7041 35.9481C23.4852 36.7291 23.4852 37.9954 22.7041 38.7765L21.9077 39.5728C21.1267 40.3539 19.8604 40.3539 19.0793 39.5728L1.41421 21.9077C0.633163 21.1267 0.633163 19.8604 1.41422 19.0793L19.0793 1.41421Z" fill="#DAB67D"/>
</svg>

