<svg width="29" height="30" viewBox="0 0 29 30" fill="none" xmlns="http://www.w3.org/2000/svg">
<path d="M24.375 24.375V9.375H9.375V8.4375C9.375 6.88688 10.6369 5.625 12.1875 5.625H15V0H12.1875C9.9505 0.00248142 7.80583 0.892227 6.22403 2.47403C4.64223 4.05583 3.75248 6.2005 3.75 8.4375V9.375H0V15H3.75V24.375H0V30H13.125V24.375H9.375V15H18.8025V24.375H15V30H28.125V24.375H24.375Z" fill="white"/>
<path d="M21.5625 5.625C23.1158 5.625 24.375 4.3658 24.375 2.8125C24.375 1.2592 23.1158 0 21.5625 0C20.0092 0 18.75 1.2592 18.75 2.8125C18.75 4.3658 20.0092 5.625 21.5625 5.625Z" fill="white"/>
</svg>

