<svg width="50" height="37" viewBox="0 0 50 37" fill="none" xmlns="http://www.w3.org/2000/svg">
<path d="M0 4.32306V3.06518C0 2.25225 0.322938 1.4726 0.897771 0.897771C1.4726 0.322938 2.25225 0 3.06518 0L45.9778 0C46.7907 0 47.5703 0.322938 48.1452 0.897771C48.72 1.4726 49.0429 2.25225 49.0429 3.06518V4.32306L24.5215 19.649L0 4.32306ZM25.3337 22.7563C25.0901 22.9084 24.8087 22.989 24.5215 22.989C24.2343 22.989 23.9528 22.9084 23.7092 22.7563L0 7.93768V33.717C0 34.53 0.322938 35.3096 0.897771 35.8844C1.4726 36.4593 2.25225 36.7822 3.06518 36.7822H45.9778C46.7907 36.7822 47.5703 36.4593 48.1452 35.8844C48.72 35.3096 49.0429 34.53 49.0429 33.717V7.93768L25.3337 22.7563Z" fill="white"/>
</svg>

