<svg width="31" height="31" viewBox="0 0 31 31" fill="none" xmlns="http://www.w3.org/2000/svg">
<path d="M28.0494 0H2.23782C1.0018 0 0 0.971179 0 2.16984V28.1154C0 29.314 1.00214 30.2862 2.23782 30.2862H28.0494C29.2854 30.2862 30.2859 29.3137 30.2859 28.1154V2.16984C30.2859 0.971515 29.2854 0 28.0494 0ZM9.18178 25.3516H4.60586V11.6777H9.18178V25.3516ZM6.89416 9.80971H6.86353C5.32903 9.80971 4.3343 8.76013 4.3343 7.44638C4.3343 6.10604 5.35831 5.08506 6.9231 5.08506C8.48822 5.08506 9.45099 6.10571 9.48128 7.44638C9.48128 8.76046 8.48856 9.80971 6.89416 9.80971ZM25.677 25.3516H21.1024V18.0358C21.1024 16.1971 20.4395 14.9429 18.7852 14.9429C17.5196 14.9429 16.7685 15.7892 16.4387 16.6059C16.3162 16.898 16.2863 17.3059 16.2863 17.7137V25.3513H11.7124C11.7124 25.3513 11.7723 12.9598 11.7124 11.6774H16.2866V13.616C16.894 12.6845 17.9789 11.3557 20.4085 11.3557C23.4193 11.3557 25.677 13.3088 25.677 17.5108V25.3516ZM16.257 13.6594C16.2651 13.6466 16.2758 13.6308 16.2866 13.616V13.6594H16.257Z" fill="white"/>
</svg>

