<svg width="30" height="21" viewBox="0 0 30 21" fill="none" xmlns="http://www.w3.org/2000/svg">
<path fill-rule="evenodd" clip-rule="evenodd" d="M28.725 1.9875C27.9112 0.54 27.0281 0.27375 25.23 0.1725C23.4338 0.050625 18.9169 0 15.0037 0C11.0831 0 6.56437 0.0506251 4.77 0.170625C2.97562 0.27375 2.09063 0.538125 1.26937 1.9875C0.43125 3.43313 0 5.92312 0 10.3069V10.3219C0 14.6869 0.43125 17.1956 1.26937 18.6262C2.09063 20.0737 2.97375 20.3363 4.76813 20.4581C6.56437 20.5631 11.0831 20.625 15.0037 20.625C18.9169 20.625 23.4338 20.5631 25.2319 20.46C27.03 20.3381 27.9131 20.0756 28.7269 18.6281C29.5725 17.1975 30 14.6887 30 10.3237V10.3088C30 5.92313 29.5725 3.43313 28.725 1.9875ZM11.25 15.9375V4.6875L20.625 10.3125L11.25 15.9375Z" fill="white"/>
</svg>

