<svg width="46" height="46" viewBox="0 0 46 46" fill="none" xmlns="http://www.w3.org/2000/svg">
<path d="M37.9926 0H7.56293C3.38604 0 0 3.47625 0 7.76442V37.8356C0 42.1237 3.38604 45.6 7.56293 45.6H37.9926C42.1695 45.6 45.5556 42.1237 45.5556 37.8356V7.76442C45.5556 3.47625 42.1695 0 37.9926 0Z" fill="#001E36"/>
<path d="M10.2579 31.9776V11.9294C10.2579 11.7831 10.319 11.7099 10.4413 11.7098L10.6348 11.7092L10.9654 11.7056L11.4249 11.6962L12.9641 11.6628L14.6146 11.6314C15.1951 11.621 15.7706 11.6158 16.3411 11.6157C17.8893 11.6157 19.1932 11.8144 20.2529 12.2118C21.2088 12.5435 22.0807 13.0902 22.8047 13.8118C23.4186 14.4372 23.893 15.1919 24.1952 16.0239C24.481 16.8334 24.6258 17.6883 24.6232 18.5494C24.6232 20.223 24.2462 21.6035 23.4923 22.6908C22.755 23.7517 21.7266 24.563 20.5383 25.0213L20.4363 25.0596C19.1955 25.5348 17.8213 25.7066 16.3143 25.7173L16.0801 25.7181L15.7325 25.7162L15.5573 25.7137L15.3619 25.7089L15.2441 25.7042L15.1725 25.7003L14.9965 25.6938L14.7814 25.6892L14.4575 25.6868L14.3854 25.6866V31.9462C14.3908 31.9846 14.3874 32.0237 14.3754 32.0605C14.3635 32.0973 14.3434 32.1307 14.3167 32.1581C14.29 32.1855 14.2575 32.2061 14.2216 32.2184C14.1858 32.2306 14.1477 32.2342 14.1103 32.2287H10.4719C10.3291 32.2288 10.2577 32.1451 10.2579 31.9776ZM14.3856 15.4747V22.0136C14.6502 22.0347 14.8946 22.0452 15.1188 22.045H16.1274C16.8228 22.0426 17.5141 21.9363 18.1797 21.7295L18.3125 21.687C18.918 21.5025 19.4591 21.143 19.8712 20.6515C20.2541 20.1878 20.4525 19.5488 20.4662 18.7346L20.4671 18.6435C20.4831 18.0366 20.3294 17.4377 20.0238 16.918C19.7028 16.4152 19.2387 16.0262 18.6945 15.8041C17.9842 15.5205 17.2253 15.3871 16.4636 15.412L16.076 15.4131L15.8315 15.4153L15.5982 15.4184L15.269 15.425L15.0287 15.4319L14.904 15.4367L14.7373 15.4447L14.5952 15.4537L14.5143 15.4603L14.4443 15.4672L14.4136 15.4708L14.3856 15.4747ZM36.4391 20.8246C35.906 20.5435 35.3405 20.3322 34.7561 20.1958L34.6208 20.1659C33.9778 20.0144 33.3214 19.931 32.6618 19.9168L32.497 19.9148C32.1103 19.9041 31.7242 19.9516 31.351 20.0561C31.1135 20.1105 30.9023 20.2494 30.7548 20.4481C30.6552 20.6072 30.6022 20.7924 30.6022 20.9816C30.6077 21.165 30.6722 21.3414 30.7854 21.4834C30.9477 21.6781 31.1427 21.8413 31.3611 21.9652L31.4273 22.0012C31.863 22.242 32.312 22.4567 32.7719 22.6443C33.7975 22.997 34.7775 23.4763 35.6903 24.0718C36.3122 24.4748 36.8269 25.03 37.188 25.6877C37.4914 26.3104 37.6434 26.9993 37.6311 27.6955C37.6492 28.615 37.3933 29.5181 36.8975 30.2841C36.3668 31.0615 35.6295 31.6659 34.7735 32.0251C33.8771 32.4295 32.7764 32.6385 31.4713 32.6521L31.3357 32.6529C30.5266 32.6611 29.7187 32.5884 28.9234 32.4358L28.7532 32.4019C28.0836 32.2758 27.4318 32.065 26.8127 31.7743C26.7504 31.7414 26.6978 31.6921 26.6602 31.6314C26.6226 31.5707 26.6014 31.5009 26.5988 31.429V28.0094C26.5951 27.9762 26.6003 27.9426 26.6138 27.9122C26.6273 27.8818 26.6485 27.8557 26.6753 27.8367C26.7015 27.8214 26.7317 27.8147 26.7617 27.8176C26.7917 27.8204 26.8202 27.8325 26.8433 27.8525C27.5744 28.295 28.3683 28.6179 29.1963 28.8094C29.9262 28.9973 30.6749 29.0974 31.4273 29.1075C32.1402 29.1075 32.6648 29.0134 33.0011 28.8251C33.1529 28.7536 33.2813 28.6386 33.3708 28.4938C33.4603 28.3491 33.5071 28.1808 33.5054 28.0094C33.5054 27.7378 33.3526 27.4763 33.047 27.2251C32.9189 27.1199 32.7352 27.0054 32.4959 26.8816L32.3815 26.8239L32.2594 26.7649L32.1954 26.7349L32.0612 26.6739L31.9912 26.6428L31.8453 26.58L31.7693 26.548L31.6117 26.4832L31.5298 26.4503L31.3602 26.3832L31.1828 26.3151C30.2231 25.9725 29.3132 25.4975 28.4781 24.9033C27.8807 24.4768 27.3889 23.9127 27.0419 23.2561C26.7415 22.6378 26.5895 21.9547 26.5988 21.2638C26.5969 20.4337 26.819 19.6192 27.2405 18.9108C27.7209 18.1307 28.4107 17.5095 29.2269 17.1226C30.1232 16.6627 31.2437 16.4325 32.5884 16.4322C33.3761 16.4257 34.163 16.4834 34.9417 16.6048C35.5055 16.6783 36.0568 16.8314 36.5799 17.0597C36.6641 17.0846 36.7319 17.1483 36.7632 17.2324C36.784 17.3089 36.7942 17.388 36.7938 17.4677V20.6365C36.7982 20.7114 36.7632 20.7832 36.7022 20.8246C36.6613 20.8455 36.6163 20.8564 36.5706 20.8564C36.525 20.8564 36.48 20.8455 36.4391 20.8246Z" fill="#31A8FF"/>
</svg>
