<svg width="46" height="37" viewBox="0 0 46 37" fill="none" xmlns="http://www.w3.org/2000/svg">
<path d="M17.8718 20.499C18.0374 17.544 19.4843 14.9407 21.6675 13.0952C23.8082 11.2826 26.6896 10.1747 29.8336 10.1747C32.9745 10.1747 35.856 11.2826 37.9984 13.0952C40.1797 14.9405 41.6268 17.544 41.7941 20.4958C41.9596 23.532 40.7392 26.3526 38.5984 28.4433C36.4155 30.57 33.3104 31.9044 29.8336 31.9044C26.3568 31.9044 23.2457 30.57 21.0642 28.4433C18.9218 26.3524 17.7045 23.5318 17.8718 20.499Z" fill="white"/>
<path d="M23.6973 20.7627C23.7822 19.2465 24.5248 17.9106 25.6448 16.9638C26.7433 16.0338 28.2217 15.4652 29.835 15.4652C31.4466 15.4652 32.9252 16.0338 34.0244 16.9638C35.1437 17.9106 35.8861 19.2465 35.9719 20.7612C36.0569 22.319 35.4309 23.7663 34.3322 24.839C33.2122 25.9302 31.619 26.6149 29.835 26.6149C28.0511 26.6149 26.4547 25.9302 25.3354 24.839C24.2362 23.7663 23.6116 22.319 23.6973 20.7627Z" fill="#265787"/>
<path d="M13.9533 23.8775C13.964 24.4718 14.1535 25.6275 14.438 26.5297C15.0358 28.4396 16.0497 30.2067 17.4607 31.7638C18.9087 33.3644 20.6916 34.6501 22.7512 35.5628C24.9158 36.5215 27.2612 37.0099 29.6974 37.006C32.1296 37.0026 34.4752 36.5046 36.6398 35.5386C38.6992 34.617 40.4805 33.3258 41.9262 31.7244C43.3362 30.1608 44.3486 28.3907 44.9481 26.4807C45.2494 25.5157 45.4398 24.5363 45.5161 23.5534C45.5908 22.5839 45.5593 21.6091 45.4222 20.6464C45.1538 18.7582 44.5004 16.9865 43.4944 15.3714C42.5744 13.8873 41.3886 12.5881 39.9783 11.4944L39.9815 11.4921L25.7508 0.564997C25.7378 0.555388 25.7273 0.545067 25.7136 0.536169C24.78 -0.180618 23.2098 -0.178126 22.183 0.540084C21.1448 1.26648 21.026 2.46783 21.9499 3.22537L21.946 3.22946L27.8815 8.05621L9.7905 8.07543H9.76629C8.27097 8.07721 6.83366 9.05825 6.54894 10.298C6.25656 11.5611 7.27231 12.6089 8.82707 12.6146L8.82458 12.6201L17.9944 12.6023L1.63144 25.1623C1.61062 25.1776 1.58802 25.1936 1.5688 25.2089C0.0252497 26.3909 -0.473725 28.3563 0.498422 29.6C1.48516 30.8649 3.5832 30.8672 5.14277 29.6073L14.0731 22.2987C14.0731 22.2987 13.9428 23.2853 13.9533 23.8775ZM36.901 27.1813C35.061 29.056 32.4848 30.1189 29.6975 30.1246C26.906 30.1294 24.33 29.076 22.49 27.2046C21.5908 26.2926 20.9304 25.2433 20.5229 24.1256C20.1222 23.0256 19.9681 21.8511 20.0714 20.685C20.1686 19.5351 20.511 18.4384 21.0573 17.446C21.594 16.4706 22.3332 15.5891 23.2461 14.8434C25.0345 13.386 27.3117 12.5968 29.6933 12.5936C32.0774 12.5904 34.3529 13.3723 36.1433 14.8251C37.0544 15.5673 37.7929 16.4457 38.3296 17.4196C38.883 18.4173 39.2203 19.5203 39.3195 20.6569C39.4214 21.8223 39.2667 22.9958 38.8663 24.0949C38.4581 25.216 37.8 26.2654 36.901 27.1813Z" fill="#EA7600"/>
</svg>
