<svg width="46" height="46" viewBox="0 0 46 46" fill="none" xmlns="http://www.w3.org/2000/svg">
<path d="M34.8785 0H10.6771C4.78029 0 0 4.78029 0 10.6771V34.8785C0 40.7753 4.78029 45.5556 10.6771 45.5556H34.8785C40.7753 45.5556 45.5556 40.7753 45.5556 34.8785V10.6771C45.5556 4.78029 40.7753 0 34.8785 0Z" fill="#F0DB4F"/>
<path d="M11.9783 38.0695L15.4643 35.9597C16.137 37.1521 16.7488 38.1611 18.2163 38.1611C19.623 38.1611 20.51 37.6109 20.51 35.4705V20.9144H24.7911V35.531C24.7911 39.965 22.192 41.9834 18.3998 41.9834C14.9751 41.9834 12.9874 40.2101 11.9783 38.0695ZM27.1164 37.6107L30.6021 35.5926C31.5198 37.0911 32.7124 38.1919 34.8222 38.1919C36.5962 38.1919 37.7273 37.305 37.7273 36.0818C37.7273 34.614 36.5653 34.0941 34.6082 33.2381L33.5381 32.7792C30.4494 31.4645 28.4005 29.8131 28.4005 26.327C28.4005 23.1161 30.847 20.6696 34.6695 20.6696C37.3911 20.6696 39.3482 21.6177 40.7548 24.0946L37.4216 26.2352C36.6875 24.9203 35.8928 24.4005 34.6695 24.4005C33.4157 24.4005 32.6206 25.1956 32.6206 26.2352C32.6206 27.5195 33.4157 28.0394 35.2504 28.8347L36.3206 29.2933C39.9595 30.853 42.0084 32.4428 42.0084 36.0206C42.0084 39.8739 38.9811 41.9837 34.9141 41.9837C30.9388 41.9837 28.3701 40.0878 27.1164 37.6107Z" fill="#323330"/>
</svg>
