<svg width="46" height="46" viewBox="0 0 46 46" fill="none" xmlns="http://www.w3.org/2000/svg">
<path d="M34.8785 0H10.6771C4.78029 0 0 4.78029 0 10.6771V34.8785C0 40.7753 4.78029 45.5556 10.6771 45.5556H34.8785C40.7753 45.5556 45.5556 40.7753 45.5556 34.8785V10.6771C45.5556 4.78029 40.7753 0 34.8785 0Z" fill="#F4F2ED"/>
<path d="M5.99975 17.8321C5.99975 17.8321 5.15715 17.2248 6.16827 16.4139L8.52363 14.3076C8.52363 14.3076 9.19771 13.5985 9.91023 14.2164L31.6468 30.6731V38.5646C31.6468 38.5646 31.6363 39.8038 30.046 39.6668L5.99975 17.8321Z" fill="#2489CA"/>
<path d="M11.6024 22.9187L5.99978 28.0122C5.99978 28.0122 5.42393 28.4405 5.99978 29.2059L8.6009 31.5718C8.6009 31.5718 9.21874 32.2353 10.1315 31.4805L16.0711 26.9767L11.6024 22.9187Z" fill="#1070B3"/>
<path d="M21.4384 22.9609L31.7135 15.115L31.6467 7.26575C31.6467 7.26575 31.2079 5.55261 29.7441 6.44432L16.071 18.8886L21.4384 22.9609Z" fill="#0877B9"/>
<path d="M30.0458 39.6775C30.6427 40.2883 31.3659 40.0882 31.3659 40.0882L39.3732 36.1425C40.3982 35.4439 40.2542 34.5769 40.2542 34.5769V11.0149C40.2542 9.97923 39.194 9.62137 39.194 9.62137L32.2541 6.27588C30.7375 5.33861 29.7441 6.44432 29.7441 6.44432C29.7441 6.44432 31.0218 5.52467 31.6467 7.26575L31.6467 38.4207C31.6475 38.6331 31.6008 38.8431 31.5099 39.0351C31.3273 39.4037 30.9306 39.7476 29.9793 39.6037L30.0458 39.6775Z" fill="#3C99D4"/>
</svg>
