<svg width="46" height="46" viewBox="0 0 46 46" fill="none" xmlns="http://www.w3.org/2000/svg">
<path d="M37.9926 0H7.56293C3.38604 0 0 3.47625 0 7.76442V37.8356C0 42.1237 3.38604 45.6 7.56293 45.6H37.9926C42.1695 45.6 45.5556 42.1237 45.5556 37.8356V7.76442C45.5556 3.47625 42.1695 0 37.9926 0Z" fill="#330000"/>
<path d="M22.0758 27.3655H15.0165L13.58 31.9461C13.5605 32.0297 13.5132 32.1036 13.4462 32.1551C13.3793 32.2067 13.2969 32.2327 13.2133 32.2285H9.63769C9.43388 32.2285 9.36258 32.1134 9.4238 31.8833L15.5359 13.8117C15.597 13.6235 15.6581 13.4092 15.7192 13.1686C15.7993 12.7499 15.8402 12.3246 15.8414 11.898C15.8373 11.8682 15.8399 11.8377 15.8492 11.8091C15.8585 11.7805 15.8741 11.7545 15.8949 11.7332C15.9156 11.7119 15.9409 11.6958 15.9688 11.6863C15.9966 11.6767 16.0263 11.674 16.0553 11.6782H20.9145C21.0568 11.6782 21.1383 11.7306 21.159 11.8353L28.0961 31.9147C28.1572 32.1242 28.0961 32.2288 27.9128 32.2285H23.9398C23.8716 32.2362 23.803 32.2181 23.7468 32.1777C23.6906 32.1373 23.6506 32.0774 23.6343 32.0089L22.0758 27.3655ZM16.1165 23.4124H20.9451L20.8762 23.1791L20.7657 22.8097L20.6869 22.5502L20.5611 22.1417L20.2936 21.2818L19.4474 18.5336C19.2954 18.0399 19.1495 17.5443 19.0097 17.0468L18.8979 16.6431L18.7673 16.1657L18.568 15.4258L18.5306 15.2864H18.5002C18.3472 16.0395 18.161 16.785 17.9422 17.5207L17.4887 19.0181L16.9874 20.6828C16.942 20.834 16.8966 20.9836 16.8513 21.1314L16.7161 21.5695L16.5815 21.9974L16.4477 22.4147L16.3146 22.8215C16.2705 22.9555 16.2264 23.0877 16.1824 23.218L16.1165 23.4124ZM32.2213 15.0039C31.9096 15.0167 31.5988 14.9619 31.3092 14.843C31.0196 14.724 30.7577 14.5437 30.5406 14.3137C30.3242 14.0737 30.1561 13.7921 30.046 13.4852C29.9358 13.1784 29.8858 12.8522 29.8987 12.5254C29.8876 12.2018 29.9431 11.8795 30.0616 11.5795C30.1801 11.2795 30.3589 11.0086 30.5863 10.7843C31.025 10.352 31.6092 10.1101 32.2172 10.1089L32.2824 10.1096C33.0159 10.1096 33.5915 10.3345 34.0092 10.7841C34.22 11.0178 34.3838 11.2919 34.4913 11.5907C34.5988 11.8895 34.6478 12.2071 34.6356 12.5254C34.6485 12.8535 34.597 13.1809 34.4842 13.4882C34.3713 13.7955 34.1994 14.0763 33.9786 14.3139C33.7558 14.5393 33.4913 14.7167 33.2008 14.8356C32.9102 14.9545 32.5994 15.0126 32.2866 15.0063L32.2213 15.0039ZM30.1126 31.9147V16.9178C30.1125 16.7295 30.194 16.6354 30.3571 16.6354H34.1162C34.279 16.6354 34.3605 16.7295 34.3607 16.9178V31.9147C34.3607 32.1242 34.2792 32.2288 34.1162 32.2285H30.3877C30.214 32.2285 30.1226 32.1346 30.1135 31.9468L30.1126 31.9147Z" fill="#FF9A00"/>
</svg>

