<svg width="46" height="46" viewBox="0 0 46 46" fill="none" xmlns="http://www.w3.org/2000/svg">
<path d="M34.8785 0H10.6771C4.78029 0 0 4.78029 0 10.6771V34.8785C0 40.7753 4.78029 45.5556 10.6771 45.5556H34.8785C40.7753 45.5556 45.5556 40.7753 45.5556 34.8785V10.6771C45.5556 4.78029 40.7753 0 34.8785 0Z" fill="#F4F2ED"/>
<path d="M16.7895 40.5729C20.0639 40.5729 22.7212 37.9156 22.7212 34.6413V28.7094H16.7895C13.5152 28.7094 10.8577 31.367 10.8577 34.6413C10.8577 37.9156 13.5152 40.5729 16.7895 40.5729Z" fill="#0ACF83"/>
<path d="M10.8577 22.7778C10.8577 19.5035 13.5152 16.8461 16.7895 16.8461H22.7212V28.7094H16.7895C13.5152 28.7094 10.8577 26.0521 10.8577 22.7778Z" fill="#A259FF"/>
<path d="M10.8574 10.9142C10.8574 7.63994 13.515 4.9826 16.7893 4.9826H22.7209L22.7212 16.8461H16.7895C13.5152 16.8461 10.8574 14.1886 10.8574 10.9142Z" fill="#F24E1E"/>
<path d="M22.7209 4.9826L28.6528 4.98254C31.9272 4.98254 34.5847 7.63989 34.5847 10.9142C34.5847 14.1885 31.9272 16.846 28.6528 16.846L22.7212 16.8461L22.7209 4.9826Z" fill="#FF7262"/>
<path d="M34.5847 22.7778C34.5847 26.0521 31.9272 28.7094 28.6528 28.7094C25.3785 28.7094 22.7212 26.0521 22.7212 22.7778C22.7212 19.5035 25.3785 16.846 28.6528 16.846C31.9272 16.846 34.5847 19.5035 34.5847 22.7778Z" fill="#1ABCFE"/>
</svg>

