<svg width="46" height="46" viewBox="0 0 46 46" fill="none" xmlns="http://www.w3.org/2000/svg">
<path d="M0 8C0 3.58173 3.58172 0 8 0H37.5555C41.9738 0 45.5556 3.58172 45.5556 8V37.5555C45.5556 41.9738 41.9738 45.5556 37.5556 45.5556H8C3.58173 45.5556 0 41.9738 0 37.5556V8Z" fill="#8D8D8D"/>
<path d="M17.7816 4.02925C25.4551 0.0789263 35.3636 2.73818 40.1273 9.9355C45.0743 17.4094 42.6613 27.0219 34.6762 31.1337L26.7318 35.2226L28.5355 37.9472C29.7546 39.7893 29.2496 42.2709 27.4076 43.4902C25.5655 44.7095 23.084 44.2043 21.8646 42.3623L17.598 35.9179C16.9705 34.97 16.7758 33.7992 17.0629 32.6992C17.35 31.5993 18.0922 30.6736 19.1029 30.1533L31.0131 24.0214C34.694 22.1261 35.817 17.9181 33.4555 14.3505C30.9122 10.5085 25.4373 9.08601 21.4428 11.1425L11.7641 16.125C11.2294 16.4002 10.9898 16.7797 10.9037 17.1162C10.817 17.4554 10.8423 17.93 11.1967 18.4658C12.0052 19.6845 13.8251 20.1364 15.0482 19.5068L23.6273 15.0908C25.5914 14.0796 28.0038 14.8514 29.015 16.8154C30.0262 18.7794 29.2534 21.1918 27.2895 22.2031L18.7104 26.6201C13.8087 29.1433 7.55393 27.455 4.5248 22.8808L4.52383 22.8789C1.31495 18.0277 2.8861 11.6978 8.10195 9.01265L17.7816 4.02925Z" fill="#5B5B5B"/>
<path d="M18.2387 4.9189C25.4524 1.20506 34.8071 3.70921 39.2934 10.4873L39.5043 10.8164C43.8451 17.7513 41.5492 26.4702 34.2182 30.2451L25.2826 34.8447L27.7016 38.499C28.6159 39.8805 28.2373 41.7417 26.8559 42.6562C25.4743 43.5707 23.6132 43.192 22.6986 41.8105L18.432 35.3652C17.9616 34.6543 17.8154 33.7769 18.0307 32.9521C18.2459 32.1273 18.8022 31.4332 19.56 31.0429L31.4711 24.9101C35.6901 22.7377 36.9742 17.8546 34.2895 13.7988C31.4687 9.53732 25.4402 7.95983 20.9857 10.2529L11.3061 15.2363C9.85893 15.9812 9.41312 17.5812 10.3607 19.0156C11.4463 20.6549 13.8227 21.2631 15.5063 20.3964L24.0854 15.9794C25.5583 15.2213 27.367 15.8005 28.1254 17.2734C28.8838 18.7465 28.3045 20.556 26.8314 21.3144L18.2523 25.7304C13.8105 28.0169 8.11023 26.483 5.35879 22.3281L5.35781 22.3271C2.47179 17.9639 3.8823 12.3092 8.55996 9.90132L18.2387 4.9189Z" fill="#2B2B2B"/>
</svg>
