<svg width="46" height="46" viewBox="0 0 46 46" fill="none" xmlns="http://www.w3.org/2000/svg">
<path d="M34.8785 0H10.6771C4.78029 0 0 4.78029 0 10.6771V34.8785C0 40.7753 4.78029 45.5556 10.6771 45.5556H34.8785C40.7753 45.5556 45.5556 40.7753 45.5556 34.8785V10.6771C45.5556 4.78029 40.7753 0 34.8785 0Z" fill="#0277BD"/>
<path d="M9.56531 18.2668L10.0746 23.9509H22.7947V18.2668H9.56531ZM22.7946 6.76206H8.54155L9.05832 12.4462H22.7946V6.76206ZM22.7946 38.943V33.0291L22.7697 33.0357L16.4392 31.3265L16.0346 26.793H10.3285L11.1249 35.718L22.7684 38.9503L22.7946 38.943Z" fill="#EBEBEB"/>
<path d="M29.7743 23.9509L29.1145 31.3227L22.775 33.0339V38.9474L34.4277 35.718L35.8489 19.7933L35.9875 18.2668L37.0137 6.76206H22.775V12.4462H30.7844L30.2672 18.2668H22.775V23.9509H29.7743Z" fill="white"/>
</svg>
