<svg width="56" height="45" viewBox="0 0 56 45" fill="none" xmlns="http://www.w3.org/2000/svg">
<path d="M21.7324 24.9272C21.9339 21.3338 23.6934 18.1682 26.3481 15.924C28.9513 13.7198 32.4551 12.3726 36.2783 12.3726C40.0976 12.3726 43.6017 13.7198 46.2068 15.924C48.8593 18.168 50.619 21.3338 50.8224 24.9233C51.0237 28.6154 49.5397 32.0452 46.9365 34.5876C44.282 37.1737 40.5062 38.7964 36.2783 38.7964C32.0504 38.7964 28.2673 37.1737 25.6145 34.5876C23.0094 32.045 21.529 28.6152 21.7324 24.9272Z" fill="white"/>
<path d="M28.8166 25.2478C28.9198 23.4041 29.8228 21.7797 31.1847 20.6282C32.5205 19.4974 34.3183 18.806 36.2801 18.806C38.2398 18.806 40.0378 19.4974 41.3744 20.6282C42.7355 21.7797 43.6383 23.4041 43.7426 25.246C43.8461 27.1403 43.0848 28.9003 41.7488 30.2047C40.3868 31.5316 38.4495 32.3643 36.2801 32.3643C34.1108 32.3643 32.1695 31.5316 30.8084 30.2047C29.4718 28.9003 28.7123 27.1403 28.8166 25.2478Z" fill="#265787"/>
<path d="M16.9675 29.0355C16.9805 29.7582 17.2109 31.1635 17.5569 32.2606C18.2838 34.5831 19.5168 36.7319 21.2326 38.6253C22.9933 40.5717 25.1614 42.1352 27.6659 43.245C30.2981 44.4107 33.1501 45.0047 36.1125 45C39.0702 44.9959 41.9224 44.3902 44.5546 43.2156C47.0589 42.0949 49.225 40.5248 50.983 38.5775C52.6976 36.676 53.9287 34.5236 54.6577 32.201C55.0241 31.0276 55.2556 29.8365 55.3484 28.6414C55.4392 27.4624 55.4009 26.2771 55.2342 25.1064C54.9079 22.8103 54.1133 20.6559 52.89 18.6919C51.7713 16.8872 50.3292 15.3073 48.6143 13.9774L48.6182 13.9746L31.3134 0.687047C31.2976 0.675362 31.2848 0.662811 31.2682 0.651992C30.133 -0.219634 28.2235 -0.216605 26.9749 0.656752C25.7125 1.54006 25.568 3.00092 26.6915 3.9221L26.6867 3.92708L33.9044 9.79649L11.9054 9.81986H11.876C10.0576 9.82203 8.30985 11.015 7.96363 12.5226C7.60809 14.0585 8.84326 15.3327 10.7339 15.3396L10.7308 15.3463L21.8815 15.3247L1.98386 30.5978C1.95854 30.6164 1.93106 30.6359 1.90769 30.6545C0.030704 32.0918 -0.576058 34.4818 0.60609 35.9942C1.80598 37.5323 4.35724 37.5351 6.2537 36.0031L17.1131 27.1156C17.1131 27.1156 16.9547 28.3153 16.9675 29.0355ZM44.8723 33.053C42.6348 35.3327 39.5021 36.6252 36.1127 36.6321C32.7182 36.6379 29.5857 35.3569 27.3482 33.0813C26.2548 31.9723 25.4518 30.6963 24.9562 29.3371C24.469 27.9996 24.2815 26.5713 24.4072 25.1534C24.5254 23.7551 24.9417 22.4214 25.606 21.2146C26.2587 20.0286 27.1576 18.9566 28.2677 18.0499C30.4424 16.2776 33.2116 15.3179 36.1075 15.3141C39.0068 15.3102 41.7738 16.261 43.9509 18.0276C45.0588 18.9302 45.9568 19.9983 46.6095 21.1826C47.2824 22.3958 47.6926 23.7371 47.8132 25.1192C47.9371 26.5363 47.749 27.9633 47.2621 29.2999C46.7657 30.6632 45.9655 31.9392 44.8723 33.053Z" fill="#EA7600"/>
</svg>

