<svg width="133" height="16" viewBox="0 0 133 16" fill="none" xmlns="http://www.w3.org/2000/svg">
<path d="M102.151 12.032C101.554 12.032 101.015 11.9307 100.535 11.728C100.066 11.5253 99.6605 11.2373 99.3192 10.864C98.9885 10.48 98.7325 10.0267 98.5512 9.504C98.3699 8.97067 98.2792 8.37867 98.2792 7.728C98.2792 7.06667 98.3699 6.46933 98.5512 5.936C98.7432 5.40267 99.0045 4.94933 99.3352 4.576C99.6658 4.192 100.061 3.89867 100.519 3.696C100.989 3.49333 101.506 3.392 102.071 3.392C102.626 3.392 103.127 3.49333 103.575 3.696C104.034 3.89867 104.423 4.18133 104.743 4.544C105.063 4.896 105.309 5.31733 105.479 5.808C105.65 6.29867 105.735 6.83733 105.735 7.424V8.032H99.6232V8.416C99.6232 8.77867 99.6818 9.11467 99.7992 9.424C99.9165 9.73333 100.082 10 100.295 10.224C100.519 10.448 100.786 10.624 101.095 10.752C101.415 10.8693 101.767 10.928 102.151 10.928C102.706 10.928 103.186 10.8 103.591 10.544C103.997 10.288 104.306 9.936 104.519 9.488L105.463 10.128C105.218 10.6827 104.807 11.1413 104.231 11.504C103.666 11.856 102.973 12.032 102.151 12.032ZM102.071 4.448C101.719 4.448 101.394 4.512 101.095 4.64C100.797 4.768 100.535 4.944 100.311 5.168C100.098 5.392 99.9272 5.65867 99.7992 5.968C99.6818 6.26667 99.6232 6.59733 99.6232 6.96V7.072H104.359V6.896C104.359 6.53333 104.301 6.20267 104.183 5.904C104.077 5.60533 103.922 5.34933 103.719 5.136C103.527 4.912 103.287 4.74133 102.999 4.624C102.722 4.50667 102.413 4.448 102.071 4.448Z" fill="#DAB67D"/>
<path d="M88.8454 10.752H91.2614V4.672H88.8454V3.584H92.5414V5.664H92.6214C92.7921 5.01333 93.1121 4.50667 93.5814 4.144C94.0614 3.77067 94.6694 3.584 95.4054 3.584H96.5574V4.864H95.0054C94.2694 4.864 93.6721 5.07733 93.2134 5.504C92.7654 5.93067 92.5414 6.49067 92.5414 7.184V10.752H95.7414V11.84H88.8454V10.752Z" fill="#DAB67D"/>
<path d="M82.8197 12.032C82.2437 12.032 81.721 11.9307 81.2517 11.728C80.793 11.5253 80.3984 11.2373 80.0677 10.864C79.7477 10.48 79.5023 10.0267 79.3317 9.504C79.161 8.97067 79.0757 8.37333 79.0757 7.712C79.0757 7.06133 79.161 6.46933 79.3317 5.936C79.5023 5.40267 79.7477 4.94933 80.0677 4.576C80.3984 4.192 80.793 3.89867 81.2517 3.696C81.721 3.49333 82.2437 3.392 82.8197 3.392C83.3957 3.392 83.913 3.49333 84.3717 3.696C84.841 3.89867 85.2357 4.192 85.5557 4.576C85.8863 4.94933 86.137 5.40267 86.3077 5.936C86.4784 6.46933 86.5637 7.06133 86.5637 7.712C86.5637 8.37333 86.4784 8.97067 86.3077 9.504C86.137 10.0267 85.8863 10.48 85.5557 10.864C85.2357 11.2373 84.841 11.5253 84.3717 11.728C83.913 11.9307 83.3957 12.032 82.8197 12.032ZM82.8197 10.928C83.5344 10.928 84.1104 10.7147 84.5477 10.288C84.985 9.86133 85.2037 9.2 85.2037 8.304V7.12C85.2037 6.224 84.985 5.56267 84.5477 5.136C84.1104 4.70933 83.5344 4.496 82.8197 4.496C82.105 4.496 81.529 4.70933 81.0917 5.136C80.6543 5.56267 80.4357 6.224 80.4357 7.12V8.304C80.4357 9.2 80.6543 9.86133 81.0917 10.288C81.529 10.7147 82.105 10.928 82.8197 10.928Z" fill="#DAB67D"/>
<path d="M69.7059 10.752H72.5859V1.088H69.7059V0H73.8659V10.752H76.7459V11.84H69.7059V10.752Z" fill="#DAB67D"/>
<path d="M60.3522 3.584H61.6322V4.928H61.6962C62.2295 3.904 63.0775 3.392 64.2402 3.392C65.2535 3.392 66.0429 3.77067 66.6082 4.528C67.1842 5.28533 67.4722 6.34667 67.4722 7.712C67.4722 9.07733 67.1842 10.1387 66.6082 10.896C66.0429 11.6533 65.2535 12.032 64.2402 12.032C63.0775 12.032 62.2295 11.52 61.6962 10.496H61.6322V15.04H60.3522V3.584ZM63.7442 10.896C64.4909 10.896 65.0668 10.672 65.4722 10.224C65.8882 9.76533 66.0962 9.16267 66.0962 8.416V7.008C66.0962 6.26133 65.8882 5.664 65.4722 5.216C65.0668 4.75733 64.4909 4.528 63.7442 4.528C63.4562 4.528 63.1842 4.56533 62.9282 4.64C62.6722 4.71467 62.4482 4.82667 62.2562 4.976C62.0642 5.11467 61.9095 5.29067 61.7922 5.504C61.6855 5.70667 61.6322 5.94667 61.6322 6.224V9.2C61.6322 9.47733 61.6855 9.72267 61.7922 9.936C61.9095 10.1387 62.0642 10.3147 62.2562 10.464C62.4482 10.6027 62.6722 10.7093 62.9282 10.784C63.1842 10.8587 63.4562 10.896 63.7442 10.896Z" fill="#DAB67D"/>
<path d="M50.2144 11.84L53.2864 7.648L50.2944 3.584H51.8304L53.0784 5.328L54.0704 6.704H54.1344L55.0944 5.328L56.3264 3.584H57.7984L54.7744 7.632L57.8784 11.84H56.3424L54.0064 8.592H53.9424L51.6864 11.84H50.2144Z" fill="#DAB67D"/>
<path d="M44.5887 12.032C43.9914 12.032 43.4527 11.9307 42.9727 11.728C42.5033 11.5253 42.098 11.2373 41.7567 10.864C41.426 10.48 41.17 10.0267 40.9887 9.504C40.8073 8.97067 40.7167 8.37867 40.7167 7.728C40.7167 7.06667 40.8073 6.46933 40.9887 5.936C41.1807 5.40267 41.442 4.94933 41.7727 4.576C42.1033 4.192 42.498 3.89867 42.9567 3.696C43.426 3.49333 43.9433 3.392 44.5087 3.392C45.0633 3.392 45.5647 3.49333 46.0127 3.696C46.4714 3.89867 46.8607 4.18133 47.1807 4.544C47.5007 4.896 47.746 5.31733 47.9167 5.808C48.0874 6.29867 48.1727 6.83733 48.1727 7.424V8.032H42.0607V8.416C42.0607 8.77867 42.1193 9.11467 42.2367 9.424C42.354 9.73333 42.5193 10 42.7327 10.224C42.9567 10.448 43.2234 10.624 43.5327 10.752C43.8527 10.8693 44.2047 10.928 44.5887 10.928C45.1434 10.928 45.6233 10.8 46.0287 10.544C46.434 10.288 46.7434 9.936 46.9567 9.488L47.9007 10.128C47.6554 10.6827 47.2447 11.1413 46.6687 11.504C46.1033 11.856 45.41 12.032 44.5887 12.032ZM44.5087 4.448C44.1567 4.448 43.8314 4.512 43.5327 4.64C43.234 4.768 42.9727 4.944 42.7487 5.168C42.5354 5.392 42.3647 5.65867 42.2367 5.968C42.1193 6.26667 42.0607 6.59733 42.0607 6.96V7.072H46.7967V6.896C46.7967 6.53333 46.738 6.20267 46.6207 5.904C46.514 5.60533 46.3593 5.34933 46.1567 5.136C45.9647 4.912 45.7247 4.74133 45.4367 4.624C45.1594 4.50667 44.85 4.448 44.5087 4.448Z" fill="#DAB67D"/>
<path d="M114.768 0.604099C118.03 5.25127 127.681 6.41306 132.099 6.41306L119.101 6.41306C115.838 3.79903 114.853 1.45124 114.768 0.604099Z" fill="#DAB67D"/>
<path d="M114.768 12.222C118.03 7.57485 127.681 6.41306 132.099 6.41306L119.101 6.41306C115.838 9.02709 114.853 11.3749 114.768 12.222Z" fill="#DAB67D"/>
<path d="M30.0713 7.36881V8.36881H0V7.36881H30.0713Z" fill="url(#paint0_linear_251_336)"/>
<defs>
<linearGradient id="paint0_linear_251_336" x1="6.80884" y1="8.36877" x2="36.8798" y2="8.36877" gradientUnits="userSpaceOnUse">
<stop stop-color="#DAB67D" stop-opacity="0"/>
<stop offset="1" stop-color="#DAB67D"/>
</linearGradient>
</defs>
</svg>

