<svg width="47" height="45" viewBox="0 0 47 45" fill="none" xmlns="http://www.w3.org/2000/svg">
<path d="M38.4916 0H7.66225C3.43051 0 0 3.43051 0 7.66225V37.3377C0 41.5695 3.43051 45 7.66225 45H38.4916C42.7233 45 46.1538 41.5695 46.1538 37.3377V7.66225C46.1538 3.43051 42.7233 0 38.4916 0Z" fill="#330000"/>
<path d="M22.3655 27.0054H15.2135L13.7582 31.5258C13.7384 31.6082 13.6904 31.6812 13.6226 31.732C13.5548 31.7829 13.4713 31.8085 13.3866 31.8045H9.76407C9.55758 31.8045 9.48534 31.6909 9.54736 31.4637L15.7397 13.63C15.8016 13.4443 15.8635 13.2327 15.9254 12.9954C16.0066 12.5821 16.048 12.1624 16.0493 11.7415C16.0451 11.712 16.0478 11.682 16.0572 11.6538C16.0666 11.6255 16.0824 11.5999 16.1034 11.5788C16.1244 11.5578 16.1501 11.5419 16.1783 11.5325C16.2065 11.5231 16.2365 11.5204 16.266 11.5246H21.1889C21.3332 11.5246 21.4157 11.5763 21.4367 11.6796L28.4648 31.4947C28.5267 31.7015 28.4648 31.8047 28.2791 31.8045H24.254C24.1849 31.812 24.1154 31.7942 24.0585 31.7544C24.0015 31.7145 23.961 31.6553 23.9445 31.5878L22.3655 27.0054ZM16.328 23.1043H21.22L21.1502 22.8741L21.0382 22.5095L20.9584 22.2535L20.8309 21.8504L20.5599 21.0018L19.7026 18.2897C19.5486 17.8026 19.4007 17.3134 19.2591 16.8225L19.1459 16.4241L19.0136 15.953L18.8117 15.2228L18.7738 15.0853H18.743C18.588 15.8284 18.3993 16.5642 18.1776 17.2902L17.7182 18.7678L17.2103 20.4106C17.1643 20.5599 17.1183 20.7075 17.0724 20.8534L16.9354 21.2857L16.7991 21.708L16.6635 22.1198L16.5287 22.5213C16.484 22.6535 16.4393 22.7839 16.3947 22.9125L16.328 23.1043ZM32.6443 14.8065C32.3285 14.8192 32.0136 14.765 31.7202 14.6477C31.4268 14.5303 31.1614 14.3523 30.9415 14.1254C30.7222 13.8885 30.552 13.6107 30.4404 13.3078C30.3288 13.005 30.2781 12.6831 30.2912 12.3606C30.2799 12.0413 30.3362 11.7232 30.4562 11.4272C30.5763 11.1311 30.7574 10.8637 30.9878 10.6424C31.4322 10.2158 32.0241 9.97704 32.6401 9.9759L32.7061 9.97662C33.4493 9.97662 34.0324 10.1985 34.4556 10.6422C34.6692 10.8729 34.8352 11.1434 34.9441 11.4382C35.053 11.7331 35.1026 12.0465 35.0903 12.3606C35.1034 12.6844 35.0512 13.0075 34.9368 13.3107C34.8225 13.614 34.6483 13.8911 34.4246 14.1256C34.1989 14.348 33.931 14.5231 33.6366 14.6404C33.3422 14.7578 33.0273 14.8151 32.7104 14.8089L32.6443 14.8065ZM30.5079 31.4947V16.6952C30.5077 16.5094 30.5903 16.4165 30.7556 16.4165H34.564C34.729 16.4165 34.8116 16.5094 34.8117 16.6952V31.4947C34.8117 31.7015 34.7291 31.8047 34.564 31.8045H30.7866C30.6106 31.8045 30.518 31.7118 30.5088 31.5265L30.5079 31.4947Z" fill="#FF9A00"/>
</svg>
