<svg width="45" height="45" viewBox="0 0 45 45" fill="none" xmlns="http://www.w3.org/2000/svg">
<path d="M37.5293 0H7.4707C3.34475 0 0 3.43051 0 7.66226V37.3378C0 41.5695 3.34475 45 7.4707 45H37.5293C41.6553 45 45 41.5695 45 37.3378V7.66226C45 3.43051 41.6553 0 37.5293 0Z" fill="#001E36"/>
<path d="M10.1326 31.5568V11.7723C10.1326 11.6279 10.1931 11.5557 10.3139 11.5556L10.5049 11.555L10.8315 11.5514L11.2854 11.5422L12.8059 11.5092L14.4363 11.4782C15.0097 11.468 15.5782 11.4629 16.1417 11.4627C17.671 11.4627 18.959 11.6588 20.0057 12.051C20.9501 12.3784 21.8113 12.9178 22.5265 13.63C23.1328 14.2472 23.6015 14.9919 23.9 15.8129C24.1823 16.6118 24.3254 17.4555 24.3228 18.3052C24.3228 19.9568 23.9504 21.3191 23.2057 22.3922C22.4774 23.4391 21.4615 24.2397 20.2877 24.6919L20.187 24.7298C18.9613 25.1987 17.6039 25.3682 16.1152 25.3788L15.8839 25.3796L15.5406 25.3778L15.3674 25.3752L15.1744 25.3705L15.058 25.3659L14.9874 25.3621L14.8135 25.3556L14.601 25.3511L14.2811 25.3487L14.2099 25.3486V31.5258C14.2152 31.5636 14.2118 31.6023 14.2 31.6385C14.1882 31.6748 14.1684 31.7078 14.142 31.7349C14.1156 31.7619 14.0835 31.7823 14.0481 31.7944C14.0127 31.8065 13.975 31.8099 13.9381 31.8045H10.3441C10.203 31.8046 10.1325 31.7221 10.1326 31.5568ZM14.2101 15.271V21.7239C14.4714 21.7446 14.7128 21.755 14.9343 21.7549H15.9306C16.6175 21.7524 17.3004 21.6475 17.9579 21.4435L18.089 21.4015C18.6872 21.2194 19.2217 20.8647 19.6287 20.3796C20.007 19.922 20.2029 19.2915 20.2165 18.488L20.2174 18.3981C20.2332 17.7991 20.0813 17.2082 19.7795 16.6952C19.4624 16.1991 19.0039 15.8152 18.4664 15.596C17.7647 15.3162 17.0152 15.1846 16.2627 15.2091L15.8798 15.2102L15.6383 15.2124L15.4078 15.2154L15.0826 15.2219L14.8453 15.2288L14.7221 15.2335L14.5574 15.2414L14.4171 15.2502L14.3372 15.2567L14.2681 15.2636L14.2377 15.2672L14.2101 15.271ZM35.9946 20.5505C35.468 20.2731 34.9094 20.0646 34.3321 19.93L34.1985 19.9004C33.5633 19.751 32.9149 19.6686 32.2633 19.6547L32.1006 19.6527C31.7186 19.6421 31.3372 19.689 30.9685 19.7921C30.7339 19.8458 30.5253 19.9828 30.3797 20.179C30.2812 20.336 30.2289 20.5187 30.2288 20.7054C30.2343 20.8864 30.298 21.0605 30.4099 21.2007C30.5701 21.3928 30.7627 21.5538 30.9785 21.6761L31.0439 21.7116C31.4743 21.9493 31.9178 22.1612 32.3721 22.3462C33.3852 22.6943 34.3532 23.1673 35.2549 23.755C35.8693 24.1526 36.3776 24.7006 36.7343 25.3496C37.0341 25.9642 37.1843 26.644 37.172 27.331C37.1899 28.2383 36.9371 29.1296 36.4474 29.8855C35.9232 30.6527 35.1948 31.2491 34.3493 31.6037C33.4639 32.0027 32.3765 32.209 31.0873 32.2224L30.9534 32.2231C30.1542 32.2313 29.3561 32.1595 28.5705 32.0089L28.4025 31.9754C27.741 31.851 27.0971 31.643 26.4856 31.3561C26.4241 31.3236 26.3721 31.275 26.335 31.2151C26.2978 31.1552 26.2769 31.0863 26.2743 31.0154V27.6407C26.2707 27.608 26.2758 27.5748 26.2891 27.5448C26.3024 27.5148 26.3234 27.4891 26.3499 27.4704C26.3758 27.4553 26.4055 27.4487 26.4352 27.4514C26.4649 27.4542 26.493 27.4662 26.5158 27.4859C27.238 27.9226 28.0222 28.2412 28.8402 28.4302C29.5611 28.6157 30.3007 28.7144 31.0439 28.7245C31.7481 28.7245 32.2663 28.6315 32.5985 28.4457C32.7485 28.3752 32.8753 28.2617 32.9637 28.1188C33.0521 27.976 33.0983 27.8099 33.0967 27.6407C33.0967 27.3727 32.9458 27.1147 32.6439 26.8668C32.5173 26.7629 32.3359 26.6499 32.0995 26.5278L31.9865 26.4708L31.8659 26.4126L31.8026 26.383L31.6701 26.3228L31.601 26.2922L31.4568 26.2302L31.3818 26.1986L31.226 26.1346L31.1452 26.1022L30.9777 26.036L30.8024 25.9687C29.8544 25.6306 28.9556 25.1619 28.1307 24.5755C27.5406 24.1546 27.0547 23.5979 26.712 22.95C26.4152 22.3398 26.2651 21.6657 26.2743 20.9839C26.2724 20.1647 26.4918 19.361 26.9082 18.6618C27.3828 17.892 28.0641 17.279 28.8704 16.8972C29.7557 16.4433 30.8626 16.2162 32.1909 16.2159C32.9689 16.2094 33.7462 16.2664 34.5154 16.3862C35.0724 16.4588 35.617 16.6098 36.1337 16.8351C36.2168 16.8597 36.2838 16.9226 36.3147 17.0055C36.3353 17.0811 36.3453 17.1591 36.345 17.2377V20.3648C36.3494 20.4388 36.3147 20.5096 36.2544 20.5505C36.2141 20.5711 36.1696 20.5818 36.1245 20.5818C36.0795 20.5818 36.035 20.5711 35.9946 20.5505Z" fill="#31A8FF"/>
</svg>

