<svg width="1920" height="20" viewBox="0 0 1920 20" fill="none" xmlns="http://www.w3.org/2000/svg">
<path d="M1219.82 2.77637C1219.82 3.23866 1219.82 3.27374 1219.82 3.27637H1153.14C1142.38 3.27646 1136.98 6.40351 1130.78 9.58105C1124.53 12.7842 1117.53 15.9971 1103.69 15.9971V14.9971C1117.32 14.9971 1124.16 11.8482 1130.33 8.69141C1136.54 5.50894 1142.12 2.27646 1153.14 2.27637H1219.82C1219.82 2.27637 1219.82 2.27664 1219.82 2.77637Z" fill="#6D6D6D"/>
<path d="M1286.5 2.27637C1297.51 2.27649 1303.1 5.50895 1309.31 8.69141C1315.47 11.8482 1322.31 14.9971 1335.94 14.9971V15.9971C1322.1 15.9971 1315.1 12.7842 1308.85 9.58105C1302.65 6.40352 1297.25 3.27649 1286.5 3.27637H1219.82C1219.82 3.27637 1219.82 3.27637 1219.82 2.77637C1219.82 2.27664 1219.82 2.27637 1219.82 2.27637H1286.5Z" fill="#6D6D6D"/>
<path d="M1219.82 1H1160.32C1150.78 1.00012 1146 4.66069 1140.46 8.41211C1137.68 10.2914 1134.71 12.1945 1130.89 13.6221C1127.06 15.0508 1122.39 15.9971 1116.21 15.9971V14.9971C1122.28 14.9971 1126.83 14.0686 1130.54 12.6855C1134.25 11.3013 1137.13 9.45376 1139.9 7.58398C1143.7 5.00549 1147.27 2.38401 1152.34 1H1144.82C1132.71 1.00006 1126.63 4.69135 1119.65 8.43848C1112.62 12.2122 1104.76 15.9971 1089.2 15.9971V14.9971C1104.54 14.9971 1112.24 11.2823 1119.18 7.55762C1126.16 3.80644 1132.44 5.63108e-05 1144.82 0H1219.82V1Z" fill="#D9D9D9"/>
<path d="M1294.82 0C1307.19 8.13388e-05 1313.47 3.80645 1320.45 7.55762C1327.39 11.2823 1335.09 14.9971 1350.44 14.9971V15.9971C1334.87 15.9971 1327.01 12.2122 1319.98 8.43848C1313 4.69136 1306.92 1.00008 1294.82 1H1287.29C1292.37 2.38402 1295.93 5.00551 1299.74 7.58398C1302.5 9.45374 1305.39 11.3013 1309.1 12.6855C1312.8 14.0685 1317.35 14.9971 1323.43 14.9971V15.9971C1317.24 15.9971 1312.58 15.0508 1308.75 13.6221C1304.92 12.1945 1301.95 10.2914 1299.18 8.41211C1293.81 4.77783 1289.15 1.22894 1280.19 1.01074L1279.31 1H1219.82V0H1294.82Z" fill="#D9D9D9"/>
<path d="M1279.82 8.49805H1230.61C1223.54 10.2774 1220.49 16.3881 1219.82 19.6953C1219.14 16.3881 1216.09 10.2775 1209.02 8.49805H1159.82V7.49805H1279.82V8.49805Z" fill="url(#paint0_linear_6_7)"/>
<path d="M1116.21 15V16H0V15H1116.21Z" fill="url(#paint1_linear_6_7)"/>
<path d="M1920 15V16H1323.42V15H1920Z" fill="url(#paint2_linear_6_7)"/>
<defs>
<linearGradient id="paint0_linear_6_7" x1="0" y1="9.84766" x2="1920" y2="9.84766" gradientUnits="userSpaceOnUse">
<stop stop-color="#8D8D8D" stop-opacity="0"/>
<stop offset="0.2" stop-color="#8D8D8D"/>
<stop offset="0.8" stop-color="#8D8D8D"/>
<stop offset="1" stop-color="#8D8D8D" stop-opacity="0"/>
</linearGradient>
<linearGradient id="paint1_linear_6_7" x1="0" y1="16" x2="1967.49" y2="16" gradientUnits="userSpaceOnUse">
<stop stop-color="#D9D9D9" stop-opacity="0"/>
<stop offset="0.2" stop-color="#D9D9D9"/>
<stop offset="0.8" stop-color="#D9D9D9"/>
<stop offset="1" stop-color="#D9D9D9" stop-opacity="0"/>
</linearGradient>
<linearGradient id="paint2_linear_6_7" x1="-91.1058" y1="16" x2="1920" y2="16" gradientUnits="userSpaceOnUse">
<stop stop-color="#D9D9D9" stop-opacity="0"/>
<stop offset="0.2" stop-color="#D9D9D9"/>
<stop offset="0.8" stop-color="#D9D9D9"/>
<stop offset="1" stop-color="#D9D9D9" stop-opacity="0"/>
</linearGradient>
</defs>
</svg>
