<svg width="1920" height="20" viewBox="0 0 1920 20" fill="none" xmlns="http://www.w3.org/2000/svg">
<path d="M1722.04 2.77637C1722.04 3.23868 1722.04 3.27374 1722.04 3.27637H1655.36C1644.61 3.27646 1639.21 6.40339 1633.01 9.58105C1626.76 12.7843 1619.76 15.9971 1605.92 15.9971V14.9971C1619.55 14.9971 1626.39 11.8483 1632.55 8.69141C1638.76 5.50883 1644.35 2.27646 1655.36 2.27637H1722.04C1722.04 2.27637 1722.04 2.27662 1722.04 2.77637Z" fill="#6D6D6D"/>
<path d="M1788.72 2.27637C1799.74 2.27649 1805.32 5.50884 1811.53 8.69141C1817.7 11.8483 1824.54 14.9971 1838.17 14.9971V15.9971C1824.33 15.9971 1817.33 12.7843 1811.08 9.58105C1804.88 6.40341 1799.48 3.27649 1788.72 3.27637H1722.04C1722.04 3.27637 1722.04 3.27638 1722.04 2.77637C1722.04 2.27662 1722.04 2.27637 1722.04 2.27637H1788.72Z" fill="#6D6D6D"/>
<path d="M1722.04 1H1662.55C1653.01 1.00012 1648.22 4.66057 1642.68 8.41211C1639.91 10.2915 1636.94 12.1944 1633.11 13.6221C1629.28 15.0508 1624.62 15.9971 1618.43 15.9971V14.9971C1624.51 14.9971 1629.06 14.0686 1632.76 12.6855C1636.47 11.3013 1639.36 9.45383 1642.12 7.58398C1645.93 5.00541 1649.49 2.38406 1654.57 1H1647.04C1634.94 1.00006 1628.85 4.69122 1621.88 8.43848C1614.85 12.2123 1606.99 15.9971 1591.42 15.9971V14.9971C1606.77 14.9971 1614.47 11.2824 1621.41 7.55762C1628.39 3.80631 1634.67 5.63127e-05 1647.04 0H1722.04V1Z" fill="#D9D9D9"/>
<path d="M1797.04 0C1809.42 8.13418e-05 1815.7 3.80632 1822.68 7.55762C1829.62 11.2824 1837.32 14.9971 1852.66 14.9971V15.9971C1837.1 15.9971 1829.24 12.2123 1822.21 8.43848C1815.23 4.69124 1809.15 1.00008 1797.04 1H1789.52C1794.59 2.38407 1798.16 5.00543 1801.96 7.58398C1804.73 9.45381 1807.61 11.3013 1811.32 12.6855C1815.03 14.0686 1819.58 14.9971 1825.65 14.9971V15.9971C1819.47 15.9971 1814.8 15.0508 1810.97 13.6221C1807.15 12.1944 1804.18 10.2915 1801.4 8.41211C1796.04 4.7777 1791.38 1.22895 1782.41 1.01074L1781.54 1H1722.04V0H1797.04Z" fill="#D9D9D9"/>
<path d="M1782.04 8.49805H1732.84C1725.77 10.2775 1722.71 16.3879 1722.04 19.6953C1721.37 16.3879 1718.31 10.2775 1711.25 8.49805H1662.04V7.49805H1782.04V8.49805Z" fill="url(#paint0_linear_225_249)"/>
<path d="M1618.43 15V16L0 16.0005V15.0005L1618.43 15Z" fill="url(#paint1_linear_225_249)"/>
<path d="M1920 15.0005V16.0005L1825.65 16V15L1920 15.0005Z" fill="url(#paint2_linear_225_249)"/>
<defs>
<linearGradient id="paint0_linear_225_249" x1="0" y1="9.84766" x2="1920" y2="9.84766" gradientUnits="userSpaceOnUse">
<stop stop-color="#8D8D8D" stop-opacity="0"/>
<stop offset="0.2" stop-color="#8D8D8D"/>
<stop offset="0.8" stop-color="#8D8D8D"/>
<stop offset="1" stop-color="#8D8D8D" stop-opacity="0"/>
</linearGradient>
<linearGradient id="paint1_linear_225_249" x1="0" y1="16" x2="1967.49" y2="16" gradientUnits="userSpaceOnUse">
<stop stop-color="#D9D9D9" stop-opacity="0"/>
<stop offset="0.2" stop-color="#D9D9D9"/>
<stop offset="0.8" stop-color="#D9D9D9"/>
<stop offset="1" stop-color="#D9D9D9" stop-opacity="0"/>
</linearGradient>
<linearGradient id="paint2_linear_225_249" x1="-91.1058" y1="16" x2="1920" y2="16" gradientUnits="userSpaceOnUse">
<stop stop-color="#D9D9D9" stop-opacity="0"/>
<stop offset="0.2" stop-color="#D9D9D9"/>
<stop offset="0.8" stop-color="#D9D9D9"/>
<stop offset="1" stop-color="#D9D9D9" stop-opacity="0"/>
</linearGradient>
</defs>
</svg>
