<svg width="1920" height="20" viewBox="0 0 1920 20" fill="none" xmlns="http://www.w3.org/2000/svg">
<path d="M1473.4 2.77637C1473.4 3.23867 1473.4 3.27374 1473.4 3.27637H1406.73C1395.97 3.27646 1390.57 6.40343 1384.37 9.58105C1378.12 12.7843 1371.12 15.9971 1357.28 15.9971V14.9971C1370.91 14.9971 1377.75 11.8483 1383.91 8.69141C1390.13 5.50886 1395.71 2.27646 1406.73 2.27637H1473.4C1473.4 2.27637 1473.4 2.27663 1473.4 2.77637Z" fill="#6D6D6D"/>
<path d="M1540.08 2.27637C1551.1 2.27649 1556.68 5.50888 1562.9 8.69141C1569.06 11.8483 1575.9 14.9971 1589.53 14.9971V15.9971C1575.69 15.9971 1568.69 12.7843 1562.44 9.58105C1556.24 6.40344 1550.84 3.27649 1540.08 3.27637H1473.41C1473.41 3.27637 1473.4 3.27638 1473.4 2.77637C1473.4 2.27663 1473.41 2.27637 1473.41 2.27637H1540.08Z" fill="#6D6D6D"/>
<path d="M1473.4 1H1413.91C1404.37 1.00012 1399.59 4.66061 1394.04 8.41211C1391.27 10.2915 1388.3 12.1944 1384.47 13.6221C1380.65 15.0508 1375.98 15.9971 1369.8 15.9971V14.9971C1375.87 14.9971 1380.42 14.0686 1384.12 12.6855C1387.83 11.3013 1390.72 9.45381 1393.48 7.58398C1397.29 5.00543 1400.86 2.38405 1405.93 1H1398.4C1386.3 1.00006 1380.22 4.69126 1373.24 8.43848C1366.21 12.2123 1358.35 15.9971 1342.79 15.9971V14.9971C1358.13 14.9971 1365.83 11.2824 1372.77 7.55762C1379.75 3.80635 1386.03 5.63121e-05 1398.4 0H1473.4V1Z" fill="#D9D9D9"/>
<path d="M1548.41 0C1560.78 8.13409e-05 1567.06 3.80636 1574.04 7.55762C1580.98 11.2824 1588.68 14.9971 1604.02 14.9971V15.9971C1588.46 15.9971 1580.6 12.2123 1573.57 8.43848C1566.59 4.69127 1560.51 1.00008 1548.41 1H1540.88C1545.95 2.38406 1549.52 5.00545 1553.33 7.58398C1556.09 9.45379 1558.98 11.3013 1562.68 12.6855C1566.39 14.0686 1570.94 14.9971 1577.01 14.9971V15.9971C1570.83 15.9971 1566.16 15.0508 1562.33 13.6221C1558.51 12.1945 1555.54 10.2915 1552.76 8.41211C1547.4 4.77774 1542.74 1.22895 1533.78 1.01074L1532.9 1H1473.4V0H1548.41Z" fill="#D9D9D9"/>
<path d="M1533.4 8.49805H1484.2C1477.13 10.2774 1474.08 16.388 1473.4 19.6953C1472.73 16.388 1469.68 10.2775 1462.61 8.49805H1413.4V7.49805H1533.4V8.49805Z" fill="url(#paint0_linear_225_249)"/>
<path d="M1369.8 15V16L0 16.0004V15.0004L1369.8 15Z" fill="url(#paint1_linear_225_249)"/>
<path d="M1920 15.0004V16.0004L1577.01 16V15L1920 15.0004Z" fill="url(#paint2_linear_225_249)"/>
<defs>
<linearGradient id="paint0_linear_225_249" x1="0" y1="9.84766" x2="1920" y2="9.84766" gradientUnits="userSpaceOnUse">
<stop stop-color="#8D8D8D" stop-opacity="0"/>
<stop offset="0.2" stop-color="#8D8D8D"/>
<stop offset="0.8" stop-color="#8D8D8D"/>
<stop offset="1" stop-color="#8D8D8D" stop-opacity="0"/>
</linearGradient>
<linearGradient id="paint1_linear_225_249" x1="0" y1="16" x2="1967.49" y2="16" gradientUnits="userSpaceOnUse">
<stop stop-color="#D9D9D9" stop-opacity="0"/>
<stop offset="0.2" stop-color="#D9D9D9"/>
<stop offset="0.8" stop-color="#D9D9D9"/>
<stop offset="1" stop-color="#D9D9D9" stop-opacity="0"/>
</linearGradient>
<linearGradient id="paint2_linear_225_249" x1="-91.1058" y1="16" x2="1920" y2="16" gradientUnits="userSpaceOnUse">
<stop stop-color="#D9D9D9" stop-opacity="0"/>
<stop offset="0.2" stop-color="#D9D9D9"/>
<stop offset="0.8" stop-color="#D9D9D9"/>
<stop offset="1" stop-color="#D9D9D9" stop-opacity="0"/>
</linearGradient>
</defs>
</svg>
