<svg width="318" height="301" viewBox="0 0 318 301" fill="none" xmlns="http://www.w3.org/2000/svg">
<path d="M138.272 121.604C138.785 121.779 139.067 122.331 138.904 122.851C138.722 123.43 138.564 124.021 138.432 124.621C138.314 125.152 137.794 125.49 137.263 125.386C137.489 124.083 137.828 122.818 138.272 121.604Z" fill="#D9D9D9"/>
<path d="M140.939 116.514C141.389 116.815 141.518 117.423 141.226 117.882C140.898 118.396 140.591 118.925 140.308 119.468C140.056 119.95 139.465 120.141 138.979 119.902C139.533 118.711 140.19 117.578 140.939 116.514Z" fill="#D9D9D9"/>
<path d="M144.83 112.284C145.187 112.692 145.155 113.312 144.754 113.68C144.303 114.093 143.87 114.526 143.457 114.977C143.089 115.378 142.469 115.41 142.062 115.053C142.901 114.05 143.828 113.123 144.83 112.284Z" fill="#D9D9D9"/>
<path d="M149.68 109.202C149.919 109.688 149.727 110.278 149.245 110.53C148.702 110.813 148.173 111.12 147.659 111.448C147.2 111.741 146.593 111.612 146.291 111.162C147.355 110.413 148.489 109.756 149.68 109.202Z" fill="#D9D9D9"/>
<path d="M179.623 121.604C180.067 122.818 180.407 124.082 180.633 125.385C180.102 125.489 179.582 125.152 179.465 124.621C179.332 124.021 179.175 123.43 178.992 122.851C178.829 122.332 179.111 121.779 179.623 121.604Z" fill="#D9D9D9"/>
<path d="M176.955 116.514C177.704 117.578 178.362 118.711 178.916 119.902C178.43 120.141 177.84 119.95 177.589 119.468C177.306 118.925 176.999 118.396 176.671 117.882C176.379 117.423 176.507 116.816 176.955 116.514Z" fill="#D9D9D9"/>
<path d="M173.065 112.284C174.068 113.123 174.994 114.05 175.833 115.053C175.426 115.409 174.807 115.378 174.439 114.977C174.026 114.526 173.593 114.093 173.143 113.68C172.742 113.312 172.709 112.692 173.065 112.284Z" fill="#D9D9D9"/>
<path d="M168.216 109.202C169.407 109.756 170.541 110.412 171.604 111.161C171.303 111.611 170.696 111.741 170.237 111.448C169.723 111.12 169.193 110.814 168.65 110.53C168.168 110.278 167.977 109.688 168.216 109.202Z" fill="#D9D9D9"/>
<path fill-rule="evenodd" clip-rule="evenodd" d="M158.948 0C159.023 5.86039 159.375 14.7196 160.16 24.4043C188.345 25.0218 211.234 47.1265 213.096 74.9883C250.608 77.5927 294.447 78.5378 317.294 78.6611L314.141 78.6816C290.58 78.8702 248.948 79.8428 213.095 82.332C211.721 102.895 198.895 120.32 180.939 128.289C180.952 128.582 180.959 128.876 180.959 129.171L180.951 129.739C180.948 129.87 180.941 130.001 180.936 130.132C180.921 130.466 180.899 130.799 180.87 131.129C180.331 131.092 179.916 130.633 179.939 130.09C179.953 129.786 179.959 129.478 179.959 129.171C179.959 129.019 179.957 128.867 179.954 128.716C174.645 130.947 168.906 132.356 162.896 132.788C160.927 162.073 159.841 195.592 159.325 221.943C159.404 222.034 159.449 222.149 159.448 222.27C159.443 223.595 159.438 224.858 159.433 226.182L159.354 245.774C162.789 239.936 165.826 238.14 166.948 237.979C163.166 241.762 161.061 249.921 159.971 257.752C163.148 252.716 165.893 251.121 166.948 250.971C161.983 255.936 159.907 268.447 159.226 277.854L159.151 296.431C159.146 297.754 159.141 299.017 159.136 300.343C159.135 300.392 159.115 300.44 159.08 300.475C159.045 300.509 158.998 300.529 158.948 300.529C158.899 300.529 158.852 300.509 158.816 300.475C158.781 300.44 158.761 300.392 158.761 300.343C158.756 299.017 158.75 297.754 158.745 296.431L158.464 226.182C158.459 224.858 158.453 223.595 158.448 222.27C158.448 222.149 158.492 222.034 158.57 221.943C158.054 195.591 156.969 162.073 154.999 132.788C148.989 132.356 143.251 130.946 137.941 128.715C137.938 128.866 137.938 129.019 137.938 129.171C137.938 129.478 137.944 129.786 137.957 130.09C137.98 130.633 137.564 131.093 137.024 131.129C136.968 130.484 136.938 129.831 136.938 129.171C136.938 128.876 136.943 128.582 136.955 128.289C119.012 120.326 106.192 102.918 104.804 82.374C68.8155 79.8536 26.8464 78.8713 3.15332 78.6816L0 78.6611L3.15332 78.6396C26.8464 78.45 68.8155 77.4677 104.804 74.9473C106.685 47.1049 129.565 25.0216 157.736 24.4043C158.521 14.7196 158.874 5.86039 158.948 0ZM105.811 82.4434C107.212 102.42 119.627 119.358 137.023 127.225C137.024 127.221 137.024 127.217 137.024 127.213C137.279 127.23 137.505 127.341 137.671 127.511C143.024 129.846 148.835 131.327 154.932 131.781C154.386 123.777 153.775 116.101 153.089 108.988C152.935 109.033 152.781 109.079 152.628 109.127C152.108 109.29 151.556 109.008 151.382 108.495C151.909 108.302 152.445 108.13 152.99 107.978C152.429 102.268 151.821 96.933 151.159 92.0996H151.17C150.448 89.4079 148.381 87.2902 145.72 86.498C134.673 84.8401 120.783 83.5073 105.811 82.4434ZM212.088 82.4014C197.452 83.4323 183.824 84.7178 172.839 86.3115C172.715 86.3491 172.59 86.385 172.462 86.418C169.664 87.1399 167.474 89.3125 166.727 92.0996H166.737C166.076 96.933 165.466 102.267 164.905 107.978C165.45 108.13 165.987 108.302 166.514 108.495C166.339 109.008 165.789 109.29 165.27 109.127C165.116 109.079 164.962 109.033 164.807 108.988C164.12 116.101 163.51 123.777 162.964 131.781C169.061 131.327 174.871 129.846 180.225 127.511C180.39 127.342 180.616 127.23 180.87 127.213C180.87 127.217 180.871 127.221 180.871 127.225C198.28 119.353 210.701 102.397 212.088 82.4014ZM178.891 29.249C173.587 27.8758 164.298 26.4653 160.567 29.0742C161.843 42.6792 163.988 57.1918 167.418 66.958C168.464 68.8917 170.278 70.3398 172.462 70.9033C172.588 70.9359 172.713 70.9707 172.835 71.0078C183.82 72.6018 197.451 73.8879 212.088 74.9189C210.648 54.1737 197.332 36.6992 178.891 29.249ZM157.328 29.0723C153.569 26.4429 144.17 27.9024 138.91 29.2871C120.531 36.7539 107.263 54.1859 105.811 74.877C120.783 73.813 134.673 72.4802 145.72 70.8223C147.776 70.21 149.477 68.8066 150.478 66.958C153.907 57.1914 156.053 42.6779 157.328 29.0723Z" fill="#D9D9D9"/>
<path d="M151.382 149.847C151.557 149.334 152.109 149.052 152.628 149.216C153.207 149.398 153.799 149.556 154.398 149.688C154.929 149.806 155.266 150.326 155.162 150.856C153.859 150.631 152.595 150.291 151.382 149.847Z" fill="#D9D9D9"/>
<path d="M165.27 149.216C165.788 149.053 166.339 149.335 166.514 149.847C165.3 150.291 164.037 150.631 162.734 150.856C162.631 150.326 162.968 149.806 163.499 149.688C164.099 149.556 164.69 149.398 165.27 149.216Z" fill="#D9D9D9"/>
<path d="M146.291 147.179C146.593 146.73 147.201 146.602 147.659 146.895C148.173 147.223 148.702 147.529 149.245 147.812C149.727 148.064 149.918 148.654 149.68 149.14C148.488 148.586 147.355 147.928 146.291 147.179Z" fill="#D9D9D9"/>
<path d="M170.237 146.895C170.696 146.602 171.302 146.731 171.604 147.18C170.54 147.929 169.407 148.586 168.216 149.14C167.978 148.654 168.169 148.064 168.65 147.812C169.194 147.529 169.723 147.223 170.237 146.895Z" fill="#D9D9D9"/>
<path d="M142.062 143.289C142.469 142.933 143.089 142.965 143.457 143.366C143.87 143.817 144.303 144.25 144.754 144.663C145.155 145.031 145.186 145.649 144.83 146.057C143.828 145.218 142.901 144.292 142.062 143.289Z" fill="#D9D9D9"/>
<path d="M174.439 143.366C174.807 142.965 175.426 142.934 175.833 143.289C174.994 144.291 174.068 145.218 173.065 146.057C172.71 145.649 172.742 145.031 173.143 144.663C173.593 144.25 174.026 143.817 174.439 143.366Z" fill="#D9D9D9"/>
<path d="M138.979 138.439C139.465 138.201 140.056 138.392 140.308 138.874C140.591 139.417 140.897 139.947 141.226 140.461C141.518 140.92 141.388 141.526 140.938 141.828C140.38 141.035 139.873 140.202 139.421 139.336C139.267 139.041 139.12 138.742 138.979 138.439Z" fill="#D9D9D9"/>
<path d="M177.589 138.874C177.84 138.392 178.431 138.201 178.916 138.439C178.362 139.631 177.705 140.764 176.956 141.828C176.507 141.526 176.378 140.919 176.671 140.461C176.999 139.947 177.306 139.417 177.589 138.874Z" fill="#D9D9D9"/>
<path d="M137.263 132.956C137.794 132.852 138.314 133.191 138.432 133.722C138.564 134.322 138.722 134.913 138.904 135.492C139.068 136.011 138.785 136.563 138.272 136.737C137.828 135.523 137.489 134.259 137.263 132.956Z" fill="#D9D9D9"/>
<path d="M179.465 133.722C179.582 133.191 180.102 132.853 180.633 132.957C180.407 134.26 180.067 135.524 179.623 136.737C179.111 136.562 178.829 136.011 178.992 135.492C179.175 134.913 179.332 134.322 179.465 133.722Z" fill="#D9D9D9"/>
</svg>
