<svg width="79" height="79" viewBox="0 0 79 79" fill="none" xmlns="http://www.w3.org/2000/svg">
<path d="M77.6095 39.3047C77.6095 18.1496 60.4599 1 39.3047 1C18.1496 1.00003 1.00003 18.1496 1 39.3047C1 60.4599 18.1496 77.6095 39.3047 77.6095V78.6095C17.5973 78.6095 0 61.0122 0 39.3047C3.29861e-05 17.5973 17.5973 3.29904e-05 39.3047 0C61.0122 0 78.6095 17.5973 78.6095 39.3047C78.6095 61.0122 61.0122 78.6095 39.3047 78.6095V77.6095C60.4599 77.6095 77.6095 60.4599 77.6095 39.3047Z" fill="url(#paint0_linear_196_331)"/>
<defs>
<linearGradient id="paint0_linear_196_331" x1="39.3047" y1="0" x2="39.3047" y2="78.6095" gradientUnits="userSpaceOnUse">
<stop stop-color="#D9D9D9"/>
<stop offset="1" stop-color="#737373" stop-opacity="0"/>
</linearGradient>
</defs>
</svg>

