<svg width="173" height="49" viewBox="0 0 173 49" fill="none" xmlns="http://www.w3.org/2000/svg">
<path d="M8.01597 37.248V37.344H1.05597V37.248C1.96797 34.608 2.15997 32.256 2.15997 28.032V22.368C2.15997 19.2 1.15197 17.424 -2.87592e-05 16.128V16.032L6.76797 13.488V18.096L6.95997 18.144C9.02397 15.648 11.328 13.728 14.688 13.728C19.056 13.728 21.456 16.416 21.456 20.688V27.984C21.456 32.304 21.552 34.608 22.56 37.248V37.344H15.6V37.248C16.464 34.608 16.656 32.064 16.656 28.032V21.792C16.656 19.056 15.456 16.656 12.24 16.656C10.224 16.656 8.35197 17.568 6.95997 19.056V27.984C6.95997 32.16 7.05597 34.608 8.01597 37.248ZM38.2522 38.064C31.4842 38.064 25.9162 32.4 25.9642 25.92C26.0122 19.488 31.5802 13.728 38.2522 13.728C44.9722 13.728 50.5882 19.488 50.5882 25.92C50.5882 32.4 45.0202 38.064 38.2522 38.064ZM38.2522 37.104C43.1962 37.104 45.3082 31.728 45.3082 25.92C45.3082 20.16 43.1482 14.688 38.2522 14.688C33.3562 14.688 31.2442 20.16 31.2442 25.92C31.2442 31.728 33.3082 37.104 38.2522 37.104ZM73.6511 37.248V37.344H64.2911V37.248C65.8271 34.272 66.2111 32.592 66.2111 28.656V3.02399L60.9791 3.21599C58.8671 3.31199 55.3631 8.78399 52.8671 12.24L52.4831 12.096L54.3071 2.20799H83.6351L85.4591 12.096L85.0751 12.24C82.5791 8.78399 79.0751 3.31199 76.9631 3.21599L71.7311 3.02399V28.656C71.7311 32.64 72.0671 34.272 73.6511 37.248ZM95.622 37.344H88.662V37.248C89.526 34.608 89.718 32.256 89.718 28.032V8.83199C89.718 5.71199 88.71 3.88799 87.558 2.59199V2.49599L94.518 -8.58307e-06V18.144C96.582 15.648 98.886 13.728 102.246 13.728C106.614 13.728 109.062 16.416 109.062 20.688V28.032C109.062 32.304 109.158 34.608 110.118 37.248V37.344H103.158V37.248C104.07 34.608 104.262 32.016 104.262 28.032V21.792C104.262 19.056 103.014 16.656 99.846 16.656C97.782 16.656 95.958 17.568 94.518 19.104V28.032C94.518 32.16 94.662 34.608 95.622 37.248V37.344ZM120.497 5.75999C120.497 7.34399 119.201 8.63999 117.617 8.63999C116.033 8.63999 114.737 7.34399 114.737 5.75999C114.737 4.17599 116.033 2.83199 117.617 2.83199C119.201 2.83199 120.497 4.17599 120.497 5.75999ZM114.353 37.344V37.248C115.025 34.608 115.457 32.208 115.457 28.032V22.56C115.457 19.488 114.449 17.664 113.297 16.368V16.032L120.257 13.488V27.984C120.257 32.112 120.353 34.608 121.313 37.248V37.344H114.353ZM132.703 37.248V37.344H125.743V37.248C126.655 34.608 126.847 32.256 126.847 28.032V22.368C126.847 19.2 125.839 17.424 124.687 16.128V16.032L131.455 13.488V18.096L131.647 18.144C133.711 15.648 136.015 13.728 139.375 13.728C143.743 13.728 146.143 16.416 146.143 20.688V27.984C146.143 32.304 146.239 34.608 147.247 37.248V37.344H140.287V37.248C141.151 34.608 141.343 32.064 141.343 28.032V21.792C141.343 19.056 140.143 16.656 136.927 16.656C134.911 16.656 133.039 17.568 131.647 19.056V27.984C131.647 32.16 131.743 34.608 132.703 37.248ZM160.311 29.232C163.431 29.232 164.631 26.112 164.631 21.936C164.631 17.712 163.479 14.592 160.263 14.592C157.047 14.592 155.991 17.712 155.991 21.936C155.991 26.112 157.191 29.232 160.311 29.232ZM172.599 40.512C172.455 44.592 168.135 48.144 159.879 48.144C153.831 48.144 149.367 46.128 149.367 42.672C149.367 40.224 151.623 38.784 153.927 38.208C152.295 37.584 151.191 36.432 151.191 34.464C151.191 31.488 153.687 29.904 156.231 29.232C153.255 27.888 151.191 25.152 151.191 21.936C151.191 17.28 155.223 13.728 160.263 13.728C162.759 13.728 165.063 14.64 166.695 16.128L172.791 12.576L172.887 12.624V16.896H172.695L167.367 16.8C168.663 18.192 169.431 19.968 169.431 21.936C169.431 26.4 165.351 30.096 160.311 30.096C159.063 30.096 157.911 29.856 156.855 29.472C155.271 30.24 154.743 31.2 154.743 32.112C154.743 33.888 156.615 34.368 159.543 34.464L164.343 34.608C168.759 34.752 172.743 36.528 172.599 40.512ZM161.847 46.464C167.175 46.464 169.863 44.736 169.863 42.384C169.863 40.032 167.223 39.312 164.007 39.216L158.823 39.024C157.335 38.976 155.895 38.832 154.647 38.448C154.023 39.024 153.447 39.984 153.447 41.376C153.447 44.592 156.423 46.464 161.847 46.464Z" fill="white"/>
</svg>

