<svg width="1920" height="301" viewBox="0 0 1920 301" fill="none" xmlns="http://www.w3.org/2000/svg">
<path d="M1219.82 65.937C1219.82 66.3993 1219.82 66.4344 1219.82 66.437H1153.14C1142.38 66.4371 1136.98 69.5642 1130.78 72.7417C1124.53 75.9449 1117.53 79.1577 1103.69 79.1577V78.1577C1117.32 78.1577 1124.16 75.0089 1130.33 71.8521C1136.54 68.6696 1142.12 65.4371 1153.14 65.437H1219.82C1219.82 65.437 1219.82 65.4373 1219.82 65.937Z" fill="#D9D9D9" fill-opacity="0.46"/>
<path d="M1286.5 65.437C1297.51 65.4371 1303.1 68.6696 1309.31 71.8521C1315.47 75.0088 1322.31 78.1577 1335.94 78.1577V79.1577C1322.1 79.1577 1315.1 75.9449 1308.85 72.7417C1302.65 69.5642 1297.25 66.4371 1286.5 66.437H1219.82C1219.82 66.437 1219.82 66.437 1219.82 65.937C1219.82 65.4373 1219.82 65.437 1219.82 65.437H1286.5Z" fill="#D9D9D9" fill-opacity="0.46"/>
<path d="M1219.82 64.1606H1160.32C1150.78 64.1608 1146 67.8213 1140.46 71.5728C1137.68 73.4521 1134.71 75.3551 1130.89 76.7827C1127.06 78.2114 1122.39 79.1577 1116.21 79.1577V78.1577C1122.28 78.1577 1126.83 77.2292 1130.54 75.8462C1134.25 74.462 1137.13 72.6144 1139.9 70.7446C1143.7 68.1661 1147.27 65.5447 1152.34 64.1606H1144.82C1132.71 64.1607 1126.63 67.852 1119.65 71.5991C1112.62 75.3728 1104.76 79.1577 1089.2 79.1577V78.1577C1104.54 78.1577 1112.24 74.443 1119.18 70.7183C1126.16 66.9671 1132.44 63.1607 1144.82 63.1606H1219.82V64.1606Z" fill="#BFBFBF"/>
<path d="M1294.82 63.1606C1307.19 63.1607 1313.47 66.9671 1320.45 70.7183C1327.39 74.4429 1335.09 78.1577 1350.44 78.1577V79.1577C1334.87 79.1577 1327.01 75.3728 1319.98 71.5991C1313 67.852 1306.92 64.1607 1294.82 64.1606H1287.29C1292.37 65.5447 1295.93 68.1662 1299.74 70.7446C1302.5 72.6144 1305.39 74.462 1309.1 75.8462C1312.8 77.2292 1317.35 78.1577 1323.43 78.1577V79.1577C1317.24 79.1577 1312.58 78.2114 1308.75 76.7827C1304.92 75.3551 1301.95 73.4521 1299.18 71.5728C1293.81 67.9385 1289.15 64.3896 1280.19 64.1714L1279.31 64.1606H1219.82V63.1606H1294.82Z" fill="#BFBFBF"/>
<path d="M1279.82 71.6587H1230.61C1223.54 73.438 1220.49 79.5487 1219.82 82.856C1219.14 79.5487 1216.09 73.4381 1209.02 71.6587H1159.82V70.6587H1279.82V71.6587Z" fill="url(#paint0_linear_61_106)"/>
<path d="M1116.21 78.1606V79.1606H0V78.1606H1116.21Z" fill="url(#paint1_linear_61_106)"/>
<path d="M1920 78.1606V79.1606H1323.42V78.1606H1920Z" fill="url(#paint2_linear_61_106)"/>
<path d="M444.555 78.6606C444.555 57.5055 427.405 40.3559 406.25 40.3559C385.095 40.3559 367.945 57.5055 367.945 78.6606C367.945 99.8158 385.095 116.965 406.25 116.965V117.965C384.543 117.965 366.945 100.368 366.945 78.6606C366.945 56.9532 384.543 39.3559 406.25 39.3559C427.957 39.3559 445.555 56.9532 445.555 78.6606C445.555 100.368 427.957 117.965 406.25 117.965V116.965C427.405 116.965 444.555 99.8158 444.555 78.6606Z" fill="url(#paint3_linear_61_106)"/>
<path d="M385.574 121.604C386.087 121.779 386.369 122.331 386.206 122.851C386.024 123.43 385.866 124.021 385.733 124.621C385.616 125.152 385.096 125.49 384.564 125.386C384.79 124.083 385.13 122.818 385.574 121.604Z" fill="#D9D9D9"/>
<path d="M388.241 116.514C388.691 116.815 388.82 117.423 388.527 117.882C388.199 118.396 387.893 118.925 387.609 119.468C387.358 119.95 386.767 120.141 386.281 119.902C386.835 118.711 387.492 117.578 388.241 116.514Z" fill="#D9D9D9"/>
<path d="M392.132 112.284C392.489 112.692 392.457 113.312 392.056 113.68C391.605 114.093 391.172 114.526 390.759 114.977C390.391 115.378 389.771 115.41 389.363 115.053C390.202 114.05 391.129 113.123 392.132 112.284Z" fill="#D9D9D9"/>
<path d="M396.981 109.202C397.221 109.688 397.029 110.278 396.547 110.53C396.004 110.813 395.475 111.12 394.961 111.448C394.502 111.741 393.895 111.612 393.593 111.162C394.657 110.413 395.79 109.756 396.981 109.202Z" fill="#D9D9D9"/>
<path d="M426.925 121.604C427.369 122.818 427.709 124.082 427.935 125.385C427.404 125.489 426.884 125.152 426.767 124.621C426.634 124.021 426.476 123.43 426.294 122.851C426.131 122.332 426.413 121.779 426.925 121.604Z" fill="#D9D9D9"/>
<path d="M424.257 116.514C425.006 117.578 425.664 118.711 426.218 119.902C425.732 120.141 425.142 119.95 424.891 119.468C424.607 118.925 424.301 118.396 423.973 117.882C423.68 117.423 423.808 116.816 424.257 116.514Z" fill="#D9D9D9"/>
<path d="M420.367 112.284C421.37 113.123 422.296 114.05 423.135 115.053C422.727 115.409 422.109 115.378 421.741 114.977C421.328 114.526 420.895 114.093 420.444 113.68C420.043 113.312 420.01 112.692 420.367 112.284Z" fill="#D9D9D9"/>
<path d="M415.518 109.202C416.708 109.756 417.842 110.412 418.906 111.161C418.605 111.611 417.998 111.741 417.539 111.448C417.025 111.12 416.495 110.814 415.952 110.53C415.47 110.278 415.279 109.688 415.518 109.202Z" fill="#D9D9D9"/>
<path fill-rule="evenodd" clip-rule="evenodd" d="M406.25 0C406.325 5.86039 406.677 14.7196 407.462 24.4043C435.647 25.0218 458.536 47.1265 460.397 74.9883C497.91 77.5927 541.749 78.5378 564.596 78.6611L561.442 78.6816C537.882 78.8702 496.249 79.8428 460.396 82.332C459.023 102.895 446.197 120.32 428.241 128.289C428.253 128.582 428.261 128.876 428.261 129.171L428.253 129.739C428.25 129.87 428.243 130.001 428.237 130.132C428.223 130.466 428.201 130.799 428.172 131.129C427.633 131.092 427.218 130.633 427.241 130.09C427.254 129.786 427.261 129.478 427.261 129.171C427.261 129.019 427.259 128.867 427.256 128.716C421.947 130.947 416.208 132.356 410.198 132.788C408.228 162.073 407.143 195.592 406.627 221.943C406.705 222.034 406.75 222.149 406.75 222.27C406.745 223.595 406.74 224.858 406.734 226.182L406.655 245.774C410.091 239.936 413.127 238.14 414.25 237.979C410.468 241.762 408.362 249.921 407.272 257.752C410.45 252.716 413.195 251.121 414.25 250.971C409.284 255.936 407.209 268.447 406.527 277.854L406.453 296.431C406.448 297.754 406.443 299.017 406.438 300.343C406.437 300.392 406.417 300.44 406.382 300.475C406.347 300.509 406.299 300.529 406.25 300.529C406.201 300.529 406.153 300.509 406.118 300.475C406.083 300.44 406.063 300.392 406.062 300.343C406.057 299.017 406.052 297.754 406.047 296.431L405.766 226.182C405.76 224.858 405.755 223.595 405.75 222.27C405.75 222.149 405.794 222.034 405.872 221.943C405.356 195.591 404.271 162.073 402.301 132.788C396.291 132.356 390.552 130.946 385.243 128.715C385.24 128.866 385.239 129.019 385.239 129.171C385.239 129.478 385.246 129.786 385.259 130.09C385.282 130.633 384.866 131.093 384.326 131.129C384.269 130.484 384.239 129.831 384.239 129.171C384.239 128.876 384.245 128.582 384.257 128.289C366.314 120.326 353.494 102.918 352.105 82.374C316.117 79.8536 274.148 78.8713 250.455 78.6816L247.302 78.6611L250.455 78.6396C274.148 78.45 316.117 77.4677 352.105 74.9473C353.987 47.1048 376.867 25.0216 405.038 24.4043C405.823 14.7196 406.175 5.86039 406.25 0ZM353.112 82.4434C354.514 102.42 366.929 119.358 384.325 127.225C384.326 127.221 384.326 127.217 384.326 127.213C384.58 127.23 384.806 127.341 384.973 127.511C390.326 129.846 396.136 131.327 402.233 131.781C401.688 123.777 401.077 116.101 400.391 108.988C400.236 109.033 400.082 109.079 399.93 109.127C399.41 109.29 398.858 109.008 398.684 108.495C399.21 108.302 399.747 108.13 400.292 107.978C399.731 102.268 399.122 96.933 398.461 92.0996H398.472C397.749 89.4079 395.683 87.2902 393.021 86.498C381.975 84.8401 368.084 83.5073 353.112 82.4434ZM459.39 82.4014C444.754 83.4323 431.125 84.7178 420.141 86.3115C420.017 86.3491 419.891 86.385 419.764 86.418C416.966 87.1399 414.776 89.3125 414.028 92.0996H414.039C413.378 96.933 412.768 102.267 412.207 107.978C412.752 108.13 413.289 108.302 413.815 108.495C413.641 109.008 413.091 109.29 412.571 109.127C412.418 109.079 412.263 109.033 412.108 108.988C411.422 116.101 410.811 123.777 410.266 131.781C416.363 131.327 422.173 129.846 427.526 127.511C427.692 127.342 427.918 127.23 428.172 127.213C428.172 127.217 428.173 127.221 428.173 127.225C445.582 119.353 458.003 102.397 459.39 82.4014ZM426.192 29.249C420.889 27.8758 411.6 26.4653 407.869 29.0742C409.145 42.6792 411.29 57.1918 414.72 66.958C415.766 68.8917 417.579 70.3398 419.764 70.9033C419.89 70.9359 420.014 70.9707 420.137 71.0078C431.122 72.6018 444.752 73.8879 459.39 74.9189C457.95 54.1737 444.634 36.6992 426.192 29.249ZM404.63 29.0723C400.871 26.4429 391.472 27.9024 386.212 29.2871C367.832 36.7539 354.564 54.1859 353.112 74.877C368.084 73.813 381.975 72.4802 393.021 70.8223C395.078 70.21 396.779 68.8066 397.779 66.958C401.209 57.1914 403.354 42.6779 404.63 29.0723Z" fill="#D9D9D9"/>
<path d="M398.684 149.847C398.858 149.334 399.411 149.052 399.93 149.216C400.509 149.398 401.1 149.556 401.7 149.688C402.231 149.806 402.568 150.326 402.464 150.856C401.161 150.631 399.897 150.291 398.684 149.847Z" fill="#D9D9D9"/>
<path d="M412.571 149.216C413.09 149.053 413.641 149.335 413.815 149.847C412.602 150.291 411.339 150.631 410.036 150.856C409.932 150.326 410.27 149.806 410.801 149.688C411.401 149.556 411.992 149.398 412.571 149.216Z" fill="#D9D9D9"/>
<path d="M393.593 147.179C393.895 146.73 394.503 146.602 394.961 146.895C395.475 147.223 396.004 147.529 396.547 147.812C397.029 148.064 397.22 148.654 396.981 149.14C395.79 148.586 394.657 147.928 393.593 147.179Z" fill="#D9D9D9"/>
<path d="M417.539 146.895C417.998 146.602 418.604 146.731 418.906 147.18C417.842 147.929 416.709 148.586 415.518 149.14C415.28 148.654 415.47 148.064 415.952 147.812C416.495 147.529 417.025 147.223 417.539 146.895Z" fill="#D9D9D9"/>
<path d="M389.363 143.289C389.771 142.933 390.391 142.965 390.759 143.366C391.172 143.817 391.605 144.25 392.056 144.663C392.456 145.031 392.488 145.649 392.132 146.057C391.129 145.218 390.202 144.292 389.363 143.289Z" fill="#D9D9D9"/>
<path d="M421.741 143.366C422.109 142.965 422.727 142.934 423.135 143.289C422.296 144.291 421.37 145.218 420.367 146.057C420.012 145.649 420.044 145.031 420.444 144.663C420.895 144.25 421.328 143.817 421.741 143.366Z" fill="#D9D9D9"/>
<path d="M386.281 138.439C386.767 138.201 387.358 138.392 387.609 138.874C387.893 139.417 388.199 139.947 388.527 140.461C388.82 140.92 388.69 141.526 388.24 141.828C387.681 141.034 387.174 140.202 386.723 139.336C386.569 139.041 386.422 138.742 386.281 138.439Z" fill="#D9D9D9"/>
<path d="M424.891 138.874C425.142 138.392 425.732 138.201 426.218 138.439C425.664 139.631 425.007 140.764 424.258 141.828C423.809 141.526 423.68 140.919 423.973 140.461C424.301 139.947 424.607 139.417 424.891 138.874Z" fill="#D9D9D9"/>
<path d="M384.564 132.956C385.095 132.852 385.616 133.191 385.733 133.722C385.866 134.322 386.024 134.913 386.206 135.492C386.369 136.011 386.087 136.563 385.574 136.737C385.13 135.523 384.79 134.259 384.564 132.956Z" fill="#D9D9D9"/>
<path d="M426.767 133.722C426.884 133.191 427.404 132.853 427.935 132.957C427.709 134.26 427.369 135.524 426.925 136.737C426.413 136.562 426.131 136.011 426.294 135.492C426.476 134.913 426.634 134.322 426.767 133.722Z" fill="#D9D9D9"/>
<defs>
<linearGradient id="paint0_linear_61_106" x1="1159.82" y1="76.7573" x2="1279.82" y2="76.7573" gradientUnits="userSpaceOnUse">
<stop stop-color="#8D8D8D" stop-opacity="0"/>
<stop offset="0.2" stop-color="#8D8D8D"/>
<stop offset="0.8" stop-color="#8D8D8D"/>
<stop offset="1" stop-color="#8D8D8D" stop-opacity="0"/>
</linearGradient>
<linearGradient id="paint1_linear_61_106" x1="0" y1="79.1606" x2="1967.49" y2="79.1606" gradientUnits="userSpaceOnUse">
<stop stop-color="#D9D9D9" stop-opacity="0"/>
<stop offset="0.2" stop-color="#D9D9D9"/>
<stop offset="0.8" stop-color="#D9D9D9"/>
<stop offset="1" stop-color="#D9D9D9" stop-opacity="0"/>
</linearGradient>
<linearGradient id="paint2_linear_61_106" x1="-91.1058" y1="79.1606" x2="1920" y2="79.1606" gradientUnits="userSpaceOnUse">
<stop stop-color="#D9D9D9" stop-opacity="0"/>
<stop offset="0.2" stop-color="#D9D9D9"/>
<stop offset="0.8" stop-color="#D9D9D9"/>
<stop offset="1" stop-color="#D9D9D9" stop-opacity="0"/>
</linearGradient>
<linearGradient id="paint3_linear_61_106" x1="406.25" y1="39.3559" x2="406.25" y2="117.965" gradientUnits="userSpaceOnUse">
<stop stop-color="#D9D9D9"/>
<stop offset="1" stop-color="#737373" stop-opacity="0"/>
</linearGradient>
</defs>
</svg>
