<svg width="170" height="13" viewBox="0 0 170 13" fill="none" xmlns="http://www.w3.org/2000/svg">
<path d="M0 3.016H1.04V4.108H1.092C1.52533 3.276 2.21433 2.86 3.159 2.86C3.98233 2.86 4.62367 3.16767 5.083 3.783C5.551 4.39833 5.785 5.26067 5.785 6.37C5.785 7.47933 5.551 8.34167 5.083 8.957C4.62367 9.57233 3.98233 9.88 3.159 9.88C2.21433 9.88 1.52533 9.464 1.092 8.632H1.04V12.324H0V3.016ZM2.756 8.957C3.36267 8.957 3.83067 8.775 4.16 8.411C4.498 8.03833 4.667 7.54867 4.667 6.942V5.798C4.667 5.19133 4.498 4.706 4.16 4.342C3.83067 3.96933 3.36267 3.783 2.756 3.783C2.522 3.783 2.301 3.81333 2.093 3.874C1.885 3.93467 1.703 4.02567 1.547 4.147C1.391 4.25967 1.26533 4.40267 1.17 4.576C1.08333 4.74067 1.04 4.93567 1.04 5.161V7.579C1.04 7.80433 1.08333 8.00367 1.17 8.177C1.26533 8.34167 1.391 8.48467 1.547 8.606C1.703 8.71867 1.885 8.80533 2.093 8.866C2.301 8.92667 2.522 8.957 2.756 8.957Z" fill="#8D8D8D"/>
<path d="M7.56092 8.84H9.52392V3.9H7.56092V3.016H10.5639V4.706H10.6289C10.7676 4.17733 11.0276 3.76567 11.4089 3.471C11.7989 3.16767 12.2929 3.016 12.8909 3.016H13.8269V4.056H12.5659C11.9679 4.056 11.4826 4.22933 11.1099 4.576C10.7459 4.92267 10.5639 5.37767 10.5639 5.941V8.84H13.1639V9.724H7.56092V8.84Z" fill="#8D8D8D"/>
<path d="M18.2548 9.88C17.7868 9.88 17.3622 9.79767 16.9808 9.633C16.6082 9.46833 16.2875 9.23433 16.0188 8.931C15.7588 8.619 15.5595 8.25067 15.4208 7.826C15.2822 7.39267 15.2128 6.90733 15.2128 6.37C15.2128 5.84133 15.2822 5.36033 15.4208 4.927C15.5595 4.49367 15.7588 4.12533 16.0188 3.822C16.2875 3.51 16.6082 3.27167 16.9808 3.107C17.3622 2.94233 17.7868 2.86 18.2548 2.86C18.7228 2.86 19.1432 2.94233 19.5158 3.107C19.8972 3.27167 20.2178 3.51 20.4778 3.822C20.7465 4.12533 20.9502 4.49367 21.0888 4.927C21.2275 5.36033 21.2968 5.84133 21.2968 6.37C21.2968 6.90733 21.2275 7.39267 21.0888 7.826C20.9502 8.25067 20.7465 8.619 20.4778 8.931C20.2178 9.23433 19.8972 9.46833 19.5158 9.633C19.1432 9.79767 18.7228 9.88 18.2548 9.88ZM18.2548 8.983C18.8355 8.983 19.3035 8.80967 19.6588 8.463C20.0142 8.11633 20.1918 7.579 20.1918 6.851V5.889C20.1918 5.161 20.0142 4.62367 19.6588 4.277C19.3035 3.93033 18.8355 3.757 18.2548 3.757C17.6742 3.757 17.2062 3.93033 16.8508 4.277C16.4955 4.62367 16.3178 5.161 16.3178 5.889V6.851C16.3178 7.579 16.4955 8.11633 16.8508 8.463C17.2062 8.80967 17.6742 8.983 18.2548 8.983Z" fill="#8D8D8D"/>
<path d="M23.2288 8.84H25.4908V3.9H23.0988V3.016H25.4908V1.638C25.4908 1.18733 25.6078 0.819 25.8418 0.533C26.0844 0.247 26.4614 0.104 26.9728 0.104H29.2218V0.988H26.5308V3.016H29.2218V3.9H26.5308V8.84H28.9228V9.724H23.2288V8.84Z" fill="#8D8D8D"/>
<path d="M33.9617 9.88C33.4764 9.88 33.0387 9.79767 32.6487 9.633C32.2674 9.46833 31.938 9.23433 31.6607 8.931C31.392 8.619 31.184 8.25067 31.0367 7.826C30.8894 7.39267 30.8157 6.91167 30.8157 6.383C30.8157 5.84567 30.8894 5.36033 31.0367 4.927C31.1927 4.49367 31.405 4.12533 31.6737 3.822C31.9424 3.51 32.263 3.27167 32.6357 3.107C33.017 2.94233 33.4374 2.86 33.8967 2.86C34.3474 2.86 34.7547 2.94233 35.1187 3.107C35.4914 3.27167 35.8077 3.50133 36.0677 3.796C36.3277 4.082 36.527 4.42433 36.6657 4.823C36.8044 5.22167 36.8737 5.65933 36.8737 6.136V6.63H31.9077V6.942C31.9077 7.23667 31.9554 7.50967 32.0507 7.761C32.146 8.01233 32.2804 8.229 32.4537 8.411C32.6357 8.593 32.8524 8.736 33.1037 8.84C33.3637 8.93533 33.6497 8.983 33.9617 8.983C34.4124 8.983 34.8024 8.879 35.1317 8.671C35.461 8.463 35.7124 8.177 35.8857 7.813L36.6527 8.333C36.4534 8.78367 36.1197 9.15633 35.6517 9.451C35.1924 9.737 34.629 9.88 33.9617 9.88ZM33.8967 3.718C33.6107 3.718 33.3464 3.77 33.1037 3.874C32.861 3.978 32.6487 4.121 32.4667 4.303C32.2934 4.485 32.1547 4.70167 32.0507 4.953C31.9554 5.19567 31.9077 5.46433 31.9077 5.759V5.85H35.7557V5.707C35.7557 5.41233 35.708 5.14367 35.6127 4.901C35.526 4.65833 35.4004 4.45033 35.2357 4.277C35.0797 4.095 34.8847 3.95633 34.6507 3.861C34.4254 3.76567 34.174 3.718 33.8967 3.718Z" fill="#8D8D8D"/>
<path d="M41.7176 9.88C41.0156 9.88 40.4089 9.763 39.8976 9.529C39.3949 9.28633 38.9659 8.96567 38.6106 8.567L39.3126 7.956C39.6333 8.294 39.9843 8.554 40.3656 8.736C40.7469 8.918 41.2063 9.009 41.7436 9.009C42.2636 9.009 42.6883 8.918 43.0176 8.736C43.3556 8.54533 43.5246 8.25067 43.5246 7.852C43.5246 7.67867 43.4899 7.53567 43.4206 7.423C43.3599 7.30167 43.2733 7.20633 43.1606 7.137C43.0479 7.06767 42.9223 7.01567 42.7836 6.981C42.6449 6.93767 42.4976 6.903 42.3416 6.877L41.2886 6.721C41.0546 6.68633 40.7989 6.63867 40.5216 6.578C40.2529 6.51733 40.0059 6.422 39.7806 6.292C39.5553 6.15333 39.3646 5.97133 39.2086 5.746C39.0613 5.52067 38.9876 5.226 38.9876 4.862C38.9876 4.524 39.0526 4.23367 39.1826 3.991C39.3213 3.73967 39.5119 3.53167 39.7546 3.367C39.9973 3.19367 40.2833 3.068 40.6126 2.99C40.9419 2.90333 41.3016 2.86 41.6916 2.86C42.2983 2.86 42.8226 2.95533 43.2646 3.146C43.7153 3.33667 44.1009 3.601 44.4216 3.939L43.7456 4.576C43.6676 4.48067 43.5679 4.38533 43.4466 4.29C43.3339 4.186 43.1909 4.095 43.0176 4.017C42.8529 3.93033 42.6579 3.861 42.4326 3.809C42.2073 3.757 41.9473 3.731 41.6526 3.731C41.1239 3.731 40.7166 3.822 40.4306 4.004C40.1533 4.186 40.0146 4.45033 40.0146 4.797C40.0146 4.97033 40.0449 5.11767 40.1056 5.239C40.1749 5.35167 40.2659 5.44267 40.3786 5.512C40.4913 5.58133 40.6169 5.63767 40.7556 5.681C40.9029 5.71567 41.0503 5.746 41.1976 5.772L42.2506 5.928C42.4933 5.96267 42.7489 6.01033 43.0176 6.071C43.2863 6.13167 43.5333 6.23133 43.7586 6.37C43.9839 6.5 44.1703 6.67767 44.3176 6.903C44.4736 7.12833 44.5516 7.423 44.5516 7.787C44.5516 8.45433 44.2916 8.97 43.7716 9.334C43.2603 9.698 42.5756 9.88 41.7176 9.88Z" fill="#8D8D8D"/>
<path d="M49.5125 9.88C48.8105 9.88 48.2039 9.763 47.6925 9.529C47.1899 9.28633 46.7609 8.96567 46.4055 8.567L47.1075 7.956C47.4282 8.294 47.7792 8.554 48.1605 8.736C48.5419 8.918 49.0012 9.009 49.5385 9.009C50.0585 9.009 50.4832 8.918 50.8125 8.736C51.1505 8.54533 51.3195 8.25067 51.3195 7.852C51.3195 7.67867 51.2849 7.53567 51.2155 7.423C51.1549 7.30167 51.0682 7.20633 50.9555 7.137C50.8429 7.06767 50.7172 7.01567 50.5785 6.981C50.4399 6.93767 50.2925 6.903 50.1365 6.877L49.0835 6.721C48.8495 6.68633 48.5939 6.63867 48.3165 6.578C48.0479 6.51733 47.8009 6.422 47.5755 6.292C47.3502 6.15333 47.1595 5.97133 47.0035 5.746C46.8562 5.52067 46.7825 5.226 46.7825 4.862C46.7825 4.524 46.8475 4.23367 46.9775 3.991C47.1162 3.73967 47.3069 3.53167 47.5495 3.367C47.7922 3.19367 48.0782 3.068 48.4075 2.99C48.7369 2.90333 49.0965 2.86 49.4865 2.86C50.0932 2.86 50.6175 2.95533 51.0595 3.146C51.5102 3.33667 51.8959 3.601 52.2165 3.939L51.5405 4.576C51.4625 4.48067 51.3629 4.38533 51.2415 4.29C51.1289 4.186 50.9859 4.095 50.8125 4.017C50.6479 3.93033 50.4529 3.861 50.2275 3.809C50.0022 3.757 49.7422 3.731 49.4475 3.731C48.9189 3.731 48.5115 3.822 48.2255 4.004C47.9482 4.186 47.8095 4.45033 47.8095 4.797C47.8095 4.97033 47.8399 5.11767 47.9005 5.239C47.9699 5.35167 48.0609 5.44267 48.1735 5.512C48.2862 5.58133 48.4119 5.63767 48.5505 5.681C48.6979 5.71567 48.8452 5.746 48.9925 5.772L50.0455 5.928C50.2882 5.96267 50.5439 6.01033 50.8125 6.071C51.0812 6.13167 51.3282 6.23133 51.5535 6.37C51.7789 6.5 51.9652 6.67767 52.1125 6.903C52.2685 7.12833 52.3465 7.423 52.3465 7.787C52.3465 8.45433 52.0865 8.97 51.5665 9.334C51.0552 9.698 50.3705 9.88 49.5125 9.88Z" fill="#8D8D8D"/>
<path d="M57.6455 1.534C57.3421 1.534 57.1298 1.47333 57.0085 1.352C56.8871 1.222 56.8265 1.06167 56.8265 0.871V0.663C56.8265 0.472333 56.8871 0.316333 57.0085 0.195C57.1298 0.0649999 57.3421 0 57.6455 0C57.9488 0 58.1611 0.0649999 58.2825 0.195C58.4038 0.316333 58.4645 0.472333 58.4645 0.663V0.871C58.4645 1.06167 58.4038 1.222 58.2825 1.352C58.1611 1.47333 57.9488 1.534 57.6455 1.534ZM54.7075 8.84H57.1255V3.9H54.7075V3.016H58.1655V8.84H60.4275V9.724H54.7075V8.84Z" fill="#8D8D8D"/>
<path d="M65.0244 9.88C64.5564 9.88 64.1317 9.79767 63.7504 9.633C63.3777 9.46833 63.057 9.23433 62.7884 8.931C62.5284 8.619 62.329 8.25067 62.1904 7.826C62.0517 7.39267 61.9824 6.90733 61.9824 6.37C61.9824 5.84133 62.0517 5.36033 62.1904 4.927C62.329 4.49367 62.5284 4.12533 62.7884 3.822C63.057 3.51 63.3777 3.27167 63.7504 3.107C64.1317 2.94233 64.5564 2.86 65.0244 2.86C65.4924 2.86 65.9127 2.94233 66.2854 3.107C66.6667 3.27167 66.9874 3.51 67.2474 3.822C67.516 4.12533 67.7197 4.49367 67.8584 4.927C67.997 5.36033 68.0664 5.84133 68.0664 6.37C68.0664 6.90733 67.997 7.39267 67.8584 7.826C67.7197 8.25067 67.516 8.619 67.2474 8.931C66.9874 9.23433 66.6667 9.46833 66.2854 9.633C65.9127 9.79767 65.4924 9.88 65.0244 9.88ZM65.0244 8.983C65.605 8.983 66.073 8.80967 66.4284 8.463C66.7837 8.11633 66.9614 7.579 66.9614 6.851V5.889C66.9614 5.161 66.7837 4.62367 66.4284 4.277C66.073 3.93033 65.605 3.757 65.0244 3.757C64.4437 3.757 63.9757 3.93033 63.6204 4.277C63.265 4.62367 63.0874 5.161 63.0874 5.889V6.851C63.0874 7.579 63.265 8.11633 63.6204 8.463C63.9757 8.80967 64.4437 8.983 65.0244 8.983Z" fill="#8D8D8D"/>
<path d="M70.1933 9.724V3.016H71.2333V4.108H71.2853C71.3546 3.94333 71.4413 3.78733 71.5453 3.64C71.6493 3.484 71.775 3.34967 71.9223 3.237C72.0783 3.12433 72.2603 3.03333 72.4683 2.964C72.6763 2.89467 72.919 2.86 73.1963 2.86C73.8983 2.86 74.4616 3.08533 74.8863 3.536C75.311 3.978 75.5233 4.60633 75.5233 5.421V9.724H74.4833V5.603C74.4833 4.98767 74.349 4.53267 74.0803 4.238C73.8116 3.93467 73.4173 3.783 72.8973 3.783C72.6893 3.783 72.4856 3.809 72.2863 3.861C72.087 3.913 71.9093 3.991 71.7533 4.095C71.5973 4.199 71.4716 4.33333 71.3763 4.498C71.281 4.66267 71.2333 4.85333 71.2333 5.07V9.724H70.1933Z" fill="#8D8D8D"/>
<path d="M83.1492 9.724C82.7419 9.724 82.4516 9.62 82.2782 9.412C82.1049 9.204 81.9966 8.944 81.9532 8.632H81.8882C81.7409 9.022 81.5025 9.32967 81.1732 9.555C80.8526 9.77167 80.4192 9.88 79.8732 9.88C79.1712 9.88 78.6122 9.698 78.1962 9.334C77.7802 8.97 77.5722 8.47167 77.5722 7.839C77.5722 7.215 77.7976 6.734 78.2482 6.396C78.7076 6.058 79.4442 5.889 80.4582 5.889H81.8882V5.226C81.8882 4.732 81.7496 4.36367 81.4722 4.121C81.1949 3.86967 80.8006 3.744 80.2892 3.744C79.8385 3.744 79.4702 3.835 79.1842 4.017C78.8982 4.19033 78.6685 4.42867 78.4952 4.732L77.7932 4.212C77.8799 4.03867 77.9969 3.86967 78.1442 3.705C78.2915 3.54033 78.4735 3.39733 78.6902 3.276C78.9069 3.146 79.1539 3.04633 79.4312 2.977C79.7086 2.899 80.0162 2.86 80.3542 2.86C81.1429 2.86 81.7669 3.05933 82.2262 3.458C82.6942 3.85667 82.9282 4.41133 82.9282 5.122V8.814H83.8642V9.724H83.1492ZM80.0552 9.009C80.3239 9.009 80.5666 8.97867 80.7832 8.918C81.0086 8.84867 81.2036 8.762 81.3682 8.658C81.5329 8.54533 81.6585 8.41533 81.7452 8.268C81.8406 8.112 81.8882 7.94733 81.8882 7.774V6.669H80.4582C79.8342 6.669 79.3792 6.75567 79.0932 6.929C78.8072 7.10233 78.6642 7.35367 78.6642 7.683V7.956C78.6642 8.30267 78.7856 8.567 79.0282 8.749C79.2796 8.92233 79.6219 9.009 80.0552 9.009Z" fill="#8D8D8D"/>
<path d="M85.5491 8.84H87.8891V0.988H85.5491V0.104H88.9291V8.84H91.2691V9.724H85.5491V8.84Z" fill="#8D8D8D"/>
<path d="M101.334 3.016H102.374V4.108H102.426C102.859 3.276 103.548 2.86 104.493 2.86C105.316 2.86 105.958 3.16767 106.417 3.783C106.885 4.39833 107.119 5.26067 107.119 6.37C107.119 7.47933 106.885 8.34167 106.417 8.957C105.958 9.57233 105.316 9.88 104.493 9.88C103.548 9.88 102.859 9.464 102.426 8.632H102.374V12.324H101.334V3.016ZM104.09 8.957C104.697 8.957 105.165 8.775 105.494 8.411C105.832 8.03833 106.001 7.54867 106.001 6.942V5.798C106.001 5.19133 105.832 4.706 105.494 4.342C105.165 3.96933 104.697 3.783 104.09 3.783C103.856 3.783 103.635 3.81333 103.427 3.874C103.219 3.93467 103.037 4.02567 102.881 4.147C102.725 4.25967 102.599 4.40267 102.504 4.576C102.417 4.74067 102.374 4.93567 102.374 5.161V7.579C102.374 7.80433 102.417 8.00367 102.504 8.177C102.599 8.34167 102.725 8.48467 102.881 8.606C103.037 8.71867 103.219 8.80533 103.427 8.866C103.635 8.92667 103.856 8.957 104.09 8.957Z" fill="#8D8D8D"/>
<path d="M111.794 9.88C111.326 9.88 110.901 9.79767 110.52 9.633C110.147 9.46833 109.827 9.23433 109.558 8.931C109.298 8.619 109.099 8.25067 108.96 7.826C108.821 7.39267 108.752 6.90733 108.752 6.37C108.752 5.84133 108.821 5.36033 108.96 4.927C109.099 4.49367 109.298 4.12533 109.558 3.822C109.827 3.51 110.147 3.27167 110.52 3.107C110.901 2.94233 111.326 2.86 111.794 2.86C112.262 2.86 112.682 2.94233 113.055 3.107C113.436 3.27167 113.757 3.51 114.017 3.822C114.286 4.12533 114.489 4.49367 114.628 4.927C114.767 5.36033 114.836 5.84133 114.836 6.37C114.836 6.90733 114.767 7.39267 114.628 7.826C114.489 8.25067 114.286 8.619 114.017 8.931C113.757 9.23433 113.436 9.46833 113.055 9.633C112.682 9.79767 112.262 9.88 111.794 9.88ZM111.794 8.983C112.375 8.983 112.843 8.80967 113.198 8.463C113.553 8.11633 113.731 7.579 113.731 6.851V5.889C113.731 5.161 113.553 4.62367 113.198 4.277C112.843 3.93033 112.375 3.757 111.794 3.757C111.213 3.757 110.745 3.93033 110.39 4.277C110.035 4.62367 109.857 5.161 109.857 5.889V6.851C109.857 7.579 110.035 8.11633 110.39 8.463C110.745 8.80967 111.213 8.983 111.794 8.983Z" fill="#8D8D8D"/>
<path d="M116.69 8.84H118.653V3.9H116.69V3.016H119.693V4.706H119.758C119.896 4.17733 120.156 3.76567 120.538 3.471C120.928 3.16767 121.422 3.016 122.02 3.016H122.956V4.056H121.695C121.097 4.056 120.611 4.22933 120.239 4.576C119.875 4.92267 119.693 5.37767 119.693 5.941V8.84H122.293V9.724H116.69V8.84Z" fill="#8D8D8D"/>
<path d="M127.709 9.724C127.197 9.724 126.82 9.581 126.578 9.295C126.344 9.009 126.227 8.64067 126.227 8.19V3.9H123.991V3.016H125.655C125.88 3.016 126.036 2.97267 126.123 2.886C126.218 2.79067 126.266 2.63033 126.266 2.405V0.65H127.267V3.016H130.322V3.9H127.267V8.84H130.322V9.724H127.709Z" fill="#8D8D8D"/>
<path d="M132.358 8.84H134.62V3.9H132.228V3.016H134.62V1.638C134.62 1.18733 134.737 0.819 134.971 0.533C135.213 0.247 135.59 0.104 136.102 0.104H138.351V0.988H135.66V3.016H138.351V3.9H135.66V8.84H138.052V9.724H132.358V8.84Z" fill="#8D8D8D"/>
<path d="M142.974 9.88C142.506 9.88 142.081 9.79767 141.7 9.633C141.327 9.46833 141.006 9.23433 140.738 8.931C140.478 8.619 140.278 8.25067 140.14 7.826C140.001 7.39267 139.932 6.90733 139.932 6.37C139.932 5.84133 140.001 5.36033 140.14 4.927C140.278 4.49367 140.478 4.12533 140.738 3.822C141.006 3.51 141.327 3.27167 141.7 3.107C142.081 2.94233 142.506 2.86 142.974 2.86C143.442 2.86 143.862 2.94233 144.235 3.107C144.616 3.27167 144.937 3.51 145.197 3.822C145.465 4.12533 145.669 4.49367 145.808 4.927C145.946 5.36033 146.016 5.84133 146.016 6.37C146.016 6.90733 145.946 7.39267 145.808 7.826C145.669 8.25067 145.465 8.619 145.197 8.931C144.937 9.23433 144.616 9.46833 144.235 9.633C143.862 9.79767 143.442 9.88 142.974 9.88ZM142.974 8.983C143.554 8.983 144.022 8.80967 144.378 8.463C144.733 8.11633 144.911 7.579 144.911 6.851V5.889C144.911 5.161 144.733 4.62367 144.378 4.277C144.022 3.93033 143.554 3.757 142.974 3.757C142.393 3.757 141.925 3.93033 141.57 4.277C141.214 4.62367 141.037 5.161 141.037 5.889V6.851C141.037 7.579 141.214 8.11633 141.57 8.463C141.925 8.80967 142.393 8.983 142.974 8.983Z" fill="#8D8D8D"/>
<path d="M147.909 8.84H150.249V0.988H147.909V0.104H151.289V8.84H153.629V9.724H147.909V8.84Z" fill="#8D8D8D"/>
<path d="M158.979 1.534C158.676 1.534 158.464 1.47333 158.342 1.352C158.221 1.222 158.16 1.06167 158.16 0.871V0.663C158.16 0.472333 158.221 0.316333 158.342 0.195C158.464 0.0649999 158.676 0 158.979 0C159.283 0 159.495 0.0649999 159.616 0.195C159.738 0.316333 159.798 0.472333 159.798 0.663V0.871C159.798 1.06167 159.738 1.222 159.616 1.352C159.495 1.47333 159.283 1.534 158.979 1.534ZM156.041 8.84H158.459V3.9H156.041V3.016H159.499V8.84H161.761V9.724H156.041V8.84Z" fill="#8D8D8D"/>
<path d="M166.358 9.88C165.89 9.88 165.466 9.79767 165.084 9.633C164.712 9.46833 164.391 9.23433 164.122 8.931C163.862 8.619 163.663 8.25067 163.524 7.826C163.386 7.39267 163.316 6.90733 163.316 6.37C163.316 5.84133 163.386 5.36033 163.524 4.927C163.663 4.49367 163.862 4.12533 164.122 3.822C164.391 3.51 164.712 3.27167 165.084 3.107C165.466 2.94233 165.89 2.86 166.358 2.86C166.826 2.86 167.247 2.94233 167.619 3.107C168.001 3.27167 168.321 3.51 168.581 3.822C168.85 4.12533 169.054 4.49367 169.192 4.927C169.331 5.36033 169.4 5.84133 169.4 6.37C169.4 6.90733 169.331 7.39267 169.192 7.826C169.054 8.25067 168.85 8.619 168.581 8.931C168.321 9.23433 168.001 9.46833 167.619 9.633C167.247 9.79767 166.826 9.88 166.358 9.88ZM166.358 8.983C166.939 8.983 167.407 8.80967 167.762 8.463C168.118 8.11633 168.295 7.579 168.295 6.851V5.889C168.295 5.161 168.118 4.62367 167.762 4.277C167.407 3.93033 166.939 3.757 166.358 3.757C165.778 3.757 165.31 3.93033 164.954 4.277C164.599 4.62367 164.421 5.161 164.421 5.889V6.851C164.421 7.579 164.599 8.11633 164.954 8.463C165.31 8.80967 165.778 8.983 166.358 8.983Z" fill="#8D8D8D"/>
</svg>

