<svg width="296" height="39" viewBox="0 0 296 39" fill="none" xmlns="http://www.w3.org/2000/svg">
<path d="M16.5117 2.30469C14.9759 5.28038 14.5918 6.9127 14.5918 10.8965V30.7207C14.5916 35.4243 11.52 38.0643 6.48047 38.0645C4.65649 38.0645 2.73624 37.7278 0.864258 37.0078L0 29.0879L0.383789 28.9443C3.74379 34.3203 5.18411 37.1045 6.91211 37.1045C8.20807 37.1044 9.12012 35.7602 9.12012 33.4082V10.8965C9.12012 6.91267 8.73602 5.28042 7.2002 2.30469V2.20801H16.5117V2.30469Z" fill="white"/>
<path fill-rule="evenodd" clip-rule="evenodd" d="M31.2314 13.7285C37.9512 13.7287 43.5672 19.4881 43.5674 25.9199C43.5674 32.3998 37.9993 38.0643 31.2314 38.0645C24.4634 38.0645 18.8954 32.3999 18.9434 25.9199C18.9915 19.4881 24.5596 13.7285 31.2314 13.7285ZM31.2314 14.6885C26.3355 14.6885 24.2237 20.16 24.2236 25.9199C24.2236 31.7279 26.2874 37.1045 31.2314 37.1045C36.1752 37.1043 38.2871 31.7278 38.2871 25.9199C38.287 20.1602 36.1271 14.6887 31.2314 14.6885Z" fill="white"/>
<path fill-rule="evenodd" clip-rule="evenodd" d="M56.3633 13.7285C61.2113 13.7285 62.6514 16.4644 62.6514 19.4404V33.1201C62.6514 34.3201 63.1316 35.2323 64.5234 35.2324C65.2434 35.2324 66.012 34.9923 66.876 34.3203L66.9717 34.416C66.2517 35.952 64.8116 37.9199 61.9316 37.9199C59.5317 37.9199 58.2833 36.5284 57.9473 34.8965C56.4593 36.5763 54.0597 38.0643 51.0361 38.0645C48.2042 38.0645 45.8995 36.7203 45.8994 33.9844C45.8994 29.1364 52.8116 26.7838 57.8516 25.9678V20.7363C57.8516 18.2403 56.8435 16.6084 53.4355 16.6084C51.6116 16.6084 49.1157 17.0886 47.0518 18.7686L46.8115 18.4805C48.7795 15.6966 52.1875 13.7286 56.3633 13.7285ZM57.8516 26.7842C54.0596 27.6482 50.4121 29.2324 50.4121 32.4004C50.4122 34.2723 51.6601 35.4727 53.916 35.4727C55.5479 35.4726 57.0356 34.848 57.8516 34.0801V26.7842Z" fill="white"/>
<path fill-rule="evenodd" clip-rule="evenodd" d="M79.9814 13.7285C86.7012 13.7287 92.3172 19.4881 92.3174 25.9199C92.3174 32.3998 86.7493 38.0643 79.9814 38.0645C73.2134 38.0645 67.6454 32.3999 67.6934 25.9199C67.7415 19.4881 73.3096 13.7285 79.9814 13.7285ZM79.9814 14.6885C75.0855 14.6885 72.9737 20.16 72.9736 25.9199C72.9736 31.7279 75.0374 37.1045 79.9814 37.1045C84.9252 37.1043 87.0371 31.7278 87.0371 25.9199C87.037 20.1602 84.8771 14.6887 79.9814 14.6885Z" fill="white"/>
<path d="M122.288 1.48828C127.376 1.48828 131.841 2.78399 134.385 3.79199L135.345 11.6641L134.96 11.8086C130.256 5.18459 127.184 2.44824 121.664 2.44824C112.784 2.44836 109.232 9.84045 109.232 19.7764C109.232 29.7602 112.928 37.1043 121.376 37.1045C128.192 37.1045 131.792 32.4005 135.152 25.6807L135.536 25.8242L134.576 34.6084C133.76 35.2326 127.952 38.0645 121.376 38.0645C110.288 38.0643 103.137 30.0482 103.137 19.7764C103.137 9.55243 111.104 1.48838 122.288 1.48828Z" fill="white"/>
<path fill-rule="evenodd" clip-rule="evenodd" d="M151.747 13.7285C158.467 13.7287 164.083 19.4881 164.083 25.9199C164.083 32.3998 158.515 38.0643 151.747 38.0645C144.979 38.0645 139.411 32.3999 139.459 25.9199C139.507 19.4881 145.075 13.7285 151.747 13.7285ZM151.747 14.6885C146.851 14.6885 144.739 20.16 144.739 25.9199C144.739 31.7279 146.803 37.1045 151.747 37.1045C156.691 37.1043 158.803 31.7278 158.803 25.9199C158.803 20.1602 156.643 14.6887 151.747 14.6885Z" fill="white"/>
<path d="M172.938 29.1367C172.938 32.4964 174.474 34.2246 177.162 34.2246C179.466 34.2244 180.905 32.928 181.817 31.2002V19.6807C181.817 17.2807 181.05 15.6 179.706 14.5439V14.4482H186.617V29.1846C186.617 34.272 187.242 35.1842 188.777 36.2881V36.3838L182.058 37.9199V31.9678C180.426 35.0877 178.218 38.0642 174.33 38.0645C170.25 38.0645 168.138 34.8963 168.138 29.9043V19.6807C168.138 17.2327 167.322 15.5999 166.122 14.5439V14.4482H172.938V29.1367Z" fill="white"/>
<path d="M198.312 14.4482H204.505V15.3125H198.312V32.1123C198.313 34.4163 199.369 35.6641 201.673 35.6641C203.353 35.664 204.6 34.9928 204.841 34.8486L204.984 35.04C203.64 36.912 201.529 38.0644 198.841 38.0645C196.009 38.0645 193.465 36.7679 193.465 32.2559V15.3125H190.873V15.0244L197.833 9.02441H198.312V14.4482Z" fill="white"/>
<path fill-rule="evenodd" clip-rule="evenodd" d="M282.716 13.7285C289.436 13.7287 295.052 19.4881 295.052 25.9199C295.052 32.3998 289.484 38.0643 282.716 38.0645C275.948 38.0645 270.38 32.3999 270.428 25.9199C270.476 19.4881 276.044 13.7285 282.716 13.7285ZM282.716 14.6885C277.82 14.6885 275.708 20.16 275.708 25.9199C275.708 31.7279 277.772 37.1045 282.716 37.1045C287.66 37.1043 289.771 31.7278 289.771 25.9199C289.771 20.1601 287.612 14.6887 282.716 14.6885Z" fill="white"/>
<path d="M214.017 27.9844C214.017 32.1122 214.113 34.6081 215.073 37.248V37.3447H208.113V37.248C208.785 34.6081 209.217 32.2081 209.217 28.0322V22.5605C209.217 19.4885 208.209 17.6642 207.057 16.3682V16.0322L214.017 13.4883V27.9844Z" fill="white"/>
<path d="M225.216 18.0967L225.407 18.1445C227.471 15.6485 229.776 13.7285 233.136 13.7285C237.504 13.7286 239.903 16.4165 239.903 20.6885V27.9844C239.903 32.3042 240 34.6081 241.008 37.248V37.3447H234.048V37.248C234.912 34.6081 235.104 32.0641 235.104 28.0322V21.792C235.103 19.0561 233.903 16.6562 230.688 16.6562C228.672 16.6563 226.799 17.5687 225.407 19.0566V27.9844C225.407 32.1602 225.504 34.6081 226.464 37.248V37.3447H219.504V37.248C220.416 34.6082 220.607 32.2561 220.607 28.0322V22.3682C220.607 19.2002 219.599 17.4239 218.447 16.1279V16.0322L225.216 13.4883V18.0967Z" fill="white"/>
<path d="M251.372 18.1445C253.436 15.6486 255.74 13.7286 259.1 13.7285C263.468 13.7285 265.916 16.4165 265.916 20.6885V28.0322C265.916 32.3041 266.012 34.6081 266.972 37.248V37.3447H260.012V37.248C260.924 34.6081 261.116 32.0162 261.116 28.0322V21.792C261.116 19.0562 259.868 16.6564 256.7 16.6562C254.636 16.6562 252.812 17.5685 251.372 19.1045V28.0322C251.372 32.1601 251.516 34.6082 252.476 37.248V37.3447H245.516V37.248C246.38 34.6081 246.572 32.2562 246.572 28.0322V8.83203C246.572 5.71216 245.564 3.88777 244.412 2.5918V2.49609L251.372 0V18.1445Z" fill="white"/>
<path d="M66.999 5.21289C65.3142 7.87838 60.8063 12.4585 56.25 9.45898C51.6937 6.4595 47.7656 8.88514 46.3711 10.4727C47.8342 8.63643 51.5719 5.26351 54.8174 6.46191C58.874 7.95995 61.584 10.9629 66.999 5.21289Z" fill="white"/>
<path d="M211.377 2.83203C212.961 2.83203 214.257 4.17597 214.257 5.75977C214.257 7.34377 212.961 8.64062 211.377 8.64062C209.793 8.64058 208.497 7.34374 208.497 5.75977C208.497 4.176 209.793 2.83207 211.377 2.83203Z" fill="white"/>
</svg>
