<svg width="84" height="10" viewBox="0 0 84 10" fill="none" xmlns="http://www.w3.org/2000/svg">
<path d="M3.28904 9.776C2.47437 9.776 1.80704 9.62866 1.28704 9.334C0.767039 9.03066 0.338039 8.645 3.90857e-05 8.177L0.793039 7.52699C1.14837 7.96899 1.52104 8.29833 1.91104 8.515C2.30971 8.73166 2.78204 8.84 3.32804 8.84C3.98671 8.84 4.48937 8.68833 4.83604 8.385C5.18271 8.08166 5.35604 7.657 5.35604 7.111C5.35604 6.66899 5.23037 6.32666 4.97904 6.08399C4.72771 5.83266 4.29004 5.65499 3.66604 5.55099L2.65204 5.382C2.21004 5.304 1.83737 5.18699 1.53404 5.03099C1.23937 4.87499 1.00104 4.68866 0.819039 4.47199C0.637039 4.24666 0.507039 4.00399 0.429039 3.74399C0.351039 3.47533 0.312039 3.19799 0.312039 2.91199C0.312039 2.07999 0.585039 1.45166 1.13104 1.02699C1.67704 0.602328 2.41371 0.389995 3.34104 0.389995C4.06904 0.389995 4.68004 0.511328 5.17404 0.753995C5.67671 0.996661 6.07971 1.33899 6.38304 1.78099L5.61604 2.44399C5.36471 2.11466 5.06137 1.84599 4.70604 1.63799C4.35071 1.42999 3.89137 1.32599 3.32804 1.32599C2.71271 1.32599 2.24037 1.45599 1.91104 1.71599C1.58171 1.97599 1.41704 2.366 1.41704 2.886C1.41704 3.29333 1.53837 3.62699 1.78104 3.88699C2.03237 4.13833 2.47871 4.32033 3.12004 4.43299L4.09504 4.602C4.53704 4.68 4.90971 4.79699 5.21304 4.95299C5.51637 5.10899 5.75904 5.29533 5.94104 5.51199C6.13171 5.72866 6.26604 5.97133 6.34404 6.23999C6.42204 6.50866 6.46104 6.79033 6.46104 7.085C6.46104 7.92566 6.18371 8.58433 5.62904 9.061C5.08304 9.53766 4.30304 9.776 3.28904 9.776ZM11.344 9.776C10.8586 9.776 10.4253 9.69366 10.044 9.529C9.67129 9.35566 9.35496 9.11733 9.09496 8.814C8.83496 8.51066 8.63563 8.14233 8.49696 7.709C8.36696 7.27566 8.30196 6.79466 8.30196 6.26599C8.30196 5.73733 8.37129 5.25633 8.50996 4.82299C8.64863 4.38966 8.84796 4.02133 9.10796 3.71799C9.36796 3.40599 9.68429 3.16766 10.057 3.003C10.4296 2.83833 10.8543 2.756 11.331 2.756C11.981 2.756 12.5096 2.89899 12.917 3.18499C13.3243 3.47099 13.6233 3.84366 13.814 4.30299L12.982 4.74499C12.8606 4.39833 12.657 4.12966 12.371 3.939C12.0936 3.74833 11.747 3.65299 11.331 3.65299C11.0276 3.65299 10.7546 3.70499 10.512 3.80899C10.278 3.90433 10.0786 4.04299 9.91396 4.22499C9.74929 4.40699 9.62363 4.62366 9.53696 4.87499C9.45896 5.12633 9.41996 5.39933 9.41996 5.69399V6.83799C9.41996 7.13266 9.45896 7.40566 9.53696 7.657C9.62363 7.90833 9.74929 8.125 9.91396 8.307C10.0786 8.489 10.2823 8.632 10.525 8.736C10.7676 8.83133 11.045 8.879 11.357 8.879C11.8076 8.879 12.1803 8.775 12.475 8.567C12.7696 8.359 13.0036 8.073 13.177 7.709L13.918 8.216C13.7186 8.66666 13.4066 9.03933 12.982 9.334C12.566 9.62866 12.02 9.776 11.344 9.776ZM16.0059 8.736H17.9689V3.79599H16.0059V2.91199H19.0089V4.602H19.0739C19.2125 4.07333 19.4725 3.66166 19.8539 3.36699C20.2439 3.06366 20.7379 2.91199 21.3359 2.91199H22.2719V3.95199H21.0109C20.4129 3.95199 19.9275 4.12533 19.5549 4.47199C19.1909 4.81866 19.0089 5.27366 19.0089 5.837V8.736H21.6089V9.62H16.0059V8.736ZM26.6998 9.776C26.2318 9.776 25.8071 9.69366 25.4258 9.529C25.0531 9.36433 24.7325 9.13033 24.4638 8.827C24.2038 8.515 24.0045 8.14666 23.8658 7.72199C23.7271 7.28866 23.6578 6.80333 23.6578 6.26599C23.6578 5.73733 23.7271 5.25633 23.8658 4.82299C24.0045 4.38966 24.2038 4.02133 24.4638 3.71799C24.7325 3.40599 25.0531 3.16766 25.4258 3.003C25.8071 2.83833 26.2318 2.756 26.6998 2.756C27.1678 2.756 27.5881 2.83833 27.9608 3.003C28.3421 3.16766 28.6628 3.40599 28.9228 3.71799C29.1915 4.02133 29.3951 4.38966 29.5338 4.82299C29.6725 5.25633 29.7418 5.73733 29.7418 6.26599C29.7418 6.80333 29.6725 7.28866 29.5338 7.72199C29.3951 8.14666 29.1915 8.515 28.9228 8.827C28.6628 9.13033 28.3421 9.36433 27.9608 9.529C27.5881 9.69366 27.1678 9.776 26.6998 9.776ZM26.6998 8.879C27.2805 8.879 27.7485 8.70566 28.1038 8.359C28.4591 8.01233 28.6368 7.47499 28.6368 6.74699V5.78499C28.6368 5.05699 28.4591 4.51966 28.1038 4.17299C27.7485 3.82633 27.2805 3.65299 26.6998 3.65299C26.1191 3.65299 25.6511 3.82633 25.2958 4.17299C24.9405 4.51966 24.7628 5.05699 24.7628 5.78499V6.74699C24.7628 7.47499 24.9405 8.01233 25.2958 8.359C25.6511 8.70566 26.1191 8.879 26.6998 8.879ZM31.6347 8.736H33.9747V0.883994H31.6347V-5.00679e-06H35.0147V8.736H37.3547V9.62H31.6347V8.736ZM39.4296 8.736H41.7696V0.883994H39.4296V-5.00679e-06H42.8096V8.736H45.1496V9.62H39.4296V8.736ZM55.2145 0.545995H57.7495C58.8588 0.545995 59.6865 0.927328 60.2325 1.68999C60.7785 2.45266 61.0515 3.58366 61.0515 5.083C61.0515 6.58233 60.7785 7.71333 60.2325 8.476C59.6865 9.23866 58.8588 9.62 57.7495 9.62H55.2145V0.545995ZM57.6975 8.671C58.4255 8.671 58.9715 8.41966 59.3355 7.91699C59.7082 7.41433 59.8945 6.70366 59.8945 5.78499V4.38099C59.8945 3.46233 59.7082 2.75166 59.3355 2.24899C58.9715 1.74633 58.4255 1.495 57.6975 1.495H56.3065V8.671H57.6975ZM65.6744 9.776C65.2064 9.776 64.7817 9.69366 64.4004 9.529C64.0277 9.36433 63.7071 9.13033 63.4384 8.827C63.1784 8.515 62.9791 8.14666 62.8404 7.72199C62.7017 7.28866 62.6324 6.80333 62.6324 6.26599C62.6324 5.73733 62.7017 5.25633 62.8404 4.82299C62.9791 4.38966 63.1784 4.02133 63.4384 3.71799C63.7071 3.40599 64.0277 3.16766 64.4004 3.003C64.7817 2.83833 65.2064 2.756 65.6744 2.756C66.1424 2.756 66.5627 2.83833 66.9354 3.003C67.3167 3.16766 67.6374 3.40599 67.8974 3.71799C68.1661 4.02133 68.3697 4.38966 68.5084 4.82299C68.6471 5.25633 68.7164 5.73733 68.7164 6.26599C68.7164 6.80333 68.6471 7.28866 68.5084 7.72199C68.3697 8.14666 68.1661 8.515 67.8974 8.827C67.6374 9.13033 67.3167 9.36433 66.9354 9.529C66.5627 9.69366 66.1424 9.776 65.6744 9.776ZM65.6744 8.879C66.2551 8.879 66.7231 8.70566 67.0784 8.359C67.4337 8.01233 67.6114 7.47499 67.6114 6.74699V5.78499C67.6114 5.05699 67.4337 4.51966 67.0784 4.17299C66.7231 3.82633 66.2551 3.65299 65.6744 3.65299C65.0937 3.65299 64.6257 3.82633 64.2704 4.17299C63.9151 4.51966 63.7374 5.05699 63.7374 5.78499V6.74699C63.7374 7.47499 63.9151 8.01233 64.2704 8.359C64.6257 8.70566 65.0937 8.879 65.6744 8.879ZM69.9593 2.91199H70.8823L71.6493 8.71H71.7663L72.9103 2.91199H74.0543L75.1983 8.71H75.3153L76.0823 2.91199H76.9793L75.9523 9.62H74.6003L73.5343 4.00399H73.4303L72.3383 9.62H70.9863L69.9593 2.91199ZM78.6383 9.62V2.91199H79.6783V4.00399H79.7303C79.7996 3.83933 79.8863 3.68333 79.9903 3.53599C80.0943 3.37999 80.2199 3.24566 80.3673 3.13299C80.5233 3.02033 80.7053 2.92933 80.9133 2.85999C81.1213 2.79066 81.3639 2.756 81.6413 2.756C82.3433 2.756 82.9066 2.98133 83.3313 3.43199C83.7559 3.87399 83.9683 4.50233 83.9683 5.31699V9.62H82.9283V5.499C82.9283 4.88366 82.7939 4.42866 82.5253 4.13399C82.2566 3.83066 81.8623 3.67899 81.3423 3.67899C81.1343 3.67899 80.9306 3.70499 80.7313 3.75699C80.5319 3.80899 80.3543 3.88699 80.1983 3.99099C80.0423 4.09499 79.9166 4.22933 79.8213 4.39399C79.7259 4.55866 79.6783 4.74933 79.6783 4.96599V9.62H78.6383Z" fill="#8D8D8D"/>
</svg>

